<?xml version="1.0" standalone="no"?>
<!DOCTYPE svg PUBLIC "-//W3C//DTD SVG 20010904//EN"
 "http://www.w3.org/TR/2001/REC-SVG-20010904/DTD/svg10.dtd">
<svg version="1.0" xmlns="http://www.w3.org/2000/svg"
 width="512.000000pt" height="512.000000pt" viewBox="0 0 512.000000 512.000000"
 preserveAspectRatio="xMidYMid meet">
<metadata>
Created by potrace 1.11, written by Peter Selinger 2001-2013
</metadata>
<g transform="translate(0.000000,512.000000) scale(0.100000,-0.100000)"
fill="#000000" stroke="none">
<path d="M0 3872 l0 -1248 48 -22 c26 -12 63 -25 82 -29 34 -6 34 -7 10 -14
-23 -7 -23 -7 -3 -8 12 -1 31 8 41 20 17 17 20 18 25 5 4 -9 2 -16 -3 -16 -6
0 -10 -7 -10 -15 0 -20 17 -19 28 2 9 15 13 13 35 -13 24 -27 26 -28 44 -13
19 17 54 12 68 -10 11 -19 35 -12 36 12 1 16 2 18 6 5 2 -10 11 -18 19 -18 22
0 16 -18 -8 -26 l-23 -7 24 -9 c17 -6 27 -5 32 3 4 6 11 9 17 5 6 -3 13 -2 17
4 3 5 17 10 31 10 13 0 24 5 24 10 0 6 -9 10 -20 10 -11 0 -20 5 -20 10 0 15
133 13 149 -2 11 -11 12 -8 7 16 -6 25 -5 28 7 17 10 -7 16 -8 19 -2 1 6 13 8
26 4 14 -3 21 -11 18 -19 -8 -20 4 -44 20 -44 8 0 14 -4 14 -10 0 -5 5 -10 10
-10 19 0 10 17 -15 30 -18 10 -22 17 -15 24 8 8 14 6 21 -4 8 -12 9 -10 4 6
-7 25 40 63 57 46 7 -7 3 -12 -11 -17 -12 -4 -21 -15 -21 -26 0 -11 4 -17 10
-14 5 3 10 13 10 21 0 8 4 13 9 10 5 -3 14 8 21 24 14 34 31 38 51 13 13 -15
11 -16 -14 -9 l-28 7 22 -22 c17 -17 23 -19 30 -8 6 10 9 11 9 2 0 -7 7 -13
16 -13 20 0 93 -77 106 -112 5 -16 14 -28 19 -28 13 0 11 7 -7 36 -22 32 -13
39 15 13 14 -14 21 -29 18 -41 -3 -11 -3 -17 0 -14 8 8 47 -51 63 -96 11 -29
17 -35 27 -27 7 6 20 9 29 5 12 -4 14 -1 9 14 -4 11 -2 20 3 20 5 0 12 -9 15
-20 3 -12 14 -20 25 -20 12 0 24 -4 27 -10 3 -5 11 -10 16 -10 6 0 7 5 3 11
-3 6 5 4 19 -6 28 -18 45 -47 23 -39 -8 3 -16 -4 -19 -16 -3 -13 -10 -19 -17
-15 -6 4 -8 15 -5 26 7 21 5 21 -90 23 -27 1 -58 6 -69 10 -14 7 -18 6 -14 -5
3 -8 11 -15 19 -15 8 -1 20 -2 27 -3 19 -2 10 -45 -10 -49 -12 -2 -22 8 -32
33 -17 40 -42 43 -40 4 3 -35 10 -89 18 -129 7 -32 4 -37 -24 -54 l-32 -18 21
-22 c21 -23 29 -52 11 -41 -6 3 -7 -1 -4 -9 5 -12 0 -16 -19 -16 -14 0 -40
-12 -59 -27 -18 -15 -35 -28 -37 -29 -1 -2 0 -8 4 -14 14 -23 13 -95 -2 -119
-19 -30 -18 -122 1 -158 18 -36 72 -86 114 -107 17 -9 32 -21 32 -27 0 -6 5
-7 12 -3 6 4 8 3 5 -3 -3 -5 1 -29 9 -52 9 -28 12 -59 8 -89 -4 -31 0 -67 11
-104 l16 -58 -46 -104 -47 -105 -57 -12 c-31 -7 -69 -11 -85 -10 -16 1 -53 -5
-82 -14 -60 -17 -76 -39 -88 -113 -5 -37 -3 -46 18 -66 13 -14 46 -34 74 -46
53 -23 59 -39 33 -88 -14 -26 -33 -28 -56 -6 -13 13 -21 14 -39 6 -13 -5 -29
-7 -36 -2 -10 6 -9 9 1 13 9 3 4 9 -14 16 -18 7 -26 15 -21 23 5 7 -5 2 -21
-10 -24 -19 -36 -22 -70 -16 -22 3 -46 11 -52 16 -9 7 -13 7 -13 0 0 -13 -38
-23 -46 -11 -3 5 3 9 13 9 17 1 17 1 1 14 -13 10 -15 15 -6 24 9 9 8 12 -4 12
-9 0 -18 -6 -20 -12 -3 -9 -16 -4 -41 15 -19 15 -41 27 -48 27 -7 0 -21 8 -32
17 -13 12 -21 14 -24 7 -2 -7 -14 -9 -25 -6 -17 4 -20 2 -15 -11 4 -10 2 -17
-3 -17 -6 0 -10 5 -10 11 0 6 -7 9 -15 5 -8 -3 -15 -1 -15 4 0 6 5 10 11 10 5
0 7 5 4 10 -4 6 -14 9 -23 6 -19 -6 -45 11 -55 36 -7 19 -9 19 -121 21 -69 1
-76 2 -60 14 11 9 31 12 48 9 l28 -6 -23 25 c-16 16 -35 25 -56 25 l-33 0 0
-55 c0 -50 2 -55 23 -56 12 0 31 -5 42 -10 14 -6 8 -7 -22 -3 l-43 6 0 -346 0
-346 39 -20 c39 -19 58 -20 998 -19 807 0 952 2 923 13 -41 16 -93 30 -170 47
-52 12 -126 44 -160 69 -18 14 -12 13 145 -30 308 -85 383 -101 454 -98 l66 3
-65 23 c-36 13 -81 30 -100 39 -19 8 -46 17 -59 20 -14 2 -30 12 -37 21 -13
16 -13 16 -14 0 0 -20 -15 -24 -25 -7 -4 6 -13 8 -21 5 -8 -3 -14 1 -14 9 0 8
-8 14 -17 13 -35 -3 -54 2 -48 12 4 6 16 8 28 4 15 -4 19 -3 12 4 -15 16 -70
28 -61 13 9 -13 -4 -14 -24 -1 -13 8 -13 10 -1 10 25 0 -1 16 -62 39 -57 21
-77 21 -77 -1 0 -6 10 -8 25 -4 24 6 35 -7 15 -19 -13 -8 -76 20 -87 40 -9 15
-27 22 -62 24 -12 1 -11 4 2 13 15 12 15 15 -2 37 -14 18 -31 25 -69 29 -32 3
-57 11 -68 23 -16 18 -16 19 17 19 45 0 49 4 113 90 143 193 486 522 853 817
159 128 254 207 290 242 17 17 38 31 45 31 8 0 25 12 39 26 13 14 39 35 59 46
77 46 517 373 568 421 49 47 52 56 17 49 -15 -2 -25 0 -25 7 0 6 -17 11 -40
11 -22 0 -40 4 -40 10 0 5 -7 7 -15 4 -8 -4 -15 -1 -15 6 0 6 -6 10 -13 7 -6
-2 -20 2 -30 11 -14 12 -22 13 -42 4 -21 -10 -30 -8 -61 13 -20 14 -43 25 -50
25 -8 0 -14 9 -14 19 0 10 -7 22 -16 25 -8 3 -13 10 -10 14 3 5 -2 18 -10 30
-19 28 -39 29 -24 2 13 -24 10 -24 -33 -6 -32 13 -74 62 -63 73 2 3 15 -2 28
-11 28 -20 58 -21 58 -1 0 9 -6 12 -15 8 -9 -3 -25 3 -36 13 -21 19 -21 19 17
25 25 4 42 3 46 -5 7 -10 12 -2 9 16 0 4 12 0 27 -8 15 -7 38 -13 52 -13 17 1
19 3 8 6 -10 2 -18 8 -18 11 0 9 157 9 166 -1 14 -14 32 -7 37 14 3 12 10 18
17 14 6 -4 9 -14 6 -22 -5 -12 0 -13 23 -8 21 4 30 2 35 -10 5 -13 17 -15 61
-12 30 3 55 1 55 -4 0 -5 6 -9 14 -9 8 0 30 -19 50 -41 l35 -42 11 29 c6 16
20 47 30 69 41 85 70 236 70 362 0 211 -57 371 -169 478 -18 17 -51 50 -74 73
-23 24 -66 55 -94 70 -29 14 -53 28 -53 31 0 11 61 41 83 41 11 0 28 7 38 16
16 15 17 14 12 -8 -4 -19 -2 -18 12 7 9 16 22 33 28 37 9 6 8 11 -3 19 -13 9
-12 10 3 5 11 -4 17 0 17 11 0 12 3 13 15 3 13 -11 13 -14 -1 -27 -11 -12 -12
-18 -3 -29 9 -11 8 -19 -6 -34 -27 -30 -11 -24 26 10 30 27 61 32 41 7 -12
-16 -13 -57 -1 -58 5 -1 15 -2 22 -3 7 0 12 -16 13 -39 0 -42 15 -63 39 -53
11 4 14 13 10 25 -3 12 0 21 9 24 11 4 13 1 9 -10 -4 -10 -2 -14 4 -10 7 4 9
0 6 -11 -3 -13 4 -22 23 -31 24 -11 30 -10 41 5 16 22 9 31 -11 15 -10 -9 -21
-9 -32 -3 -11 6 -13 11 -5 16 6 4 11 1 11 -6 0 -7 9 5 20 27 25 49 25 57 0 73
-23 14 -24 13 -10 -22 9 -24 8 -25 -16 -16 -14 6 -23 6 -20 1 7 -10 -54 -34
-63 -25 -3 3 2 11 12 19 16 12 16 13 -8 19 -14 4 -25 11 -25 17 0 6 -5 7 -11
3 -7 -4 -10 -1 -7 6 7 23 40 20 60 -6 11 -13 24 -21 30 -18 6 4 6 10 0 16 -6
6 -8 18 -5 27 4 11 2 11 -9 -3 -15 -19 -16 -19 -23 3 -5 18 -12 21 -30 17 -18
-5 -23 -2 -20 12 1 9 -2 23 -8 30 -8 11 -4 13 19 10 23 -2 29 1 30 17 3 37 4
40 12 28 4 -6 16 -13 26 -15 14 -2 19 3 21 20 1 16 -3 21 -14 17 -19 -6 -48
11 -38 22 5 4 12 1 18 -7 8 -13 10 -13 19 0 9 13 12 13 25 -3 7 -11 11 -26 8
-35 -4 -12 -1 -11 10 3 13 17 14 22 1 36 -10 11 -11 18 -2 27 8 8 15 7 25 -6
13 -16 13 -16 11 3 -2 16 3 20 23 20 14 0 26 4 25 10 -1 18 36 95 46 95 5 0 8
-8 6 -17 -1 -10 1 -24 6 -31 6 -10 11 -9 22 5 13 17 14 17 20 -4 3 -13 13 -23
21 -23 8 0 11 -5 8 -10 -3 -6 1 -18 10 -27 15 -14 16 -14 13 0 -3 16 -1 17 28
17 12 0 15 -6 10 -25 -8 -32 17 -44 43 -21 10 9 21 13 26 9 4 -5 5 -2 0 6 -6
10 -2 12 14 6 12 -4 21 -2 21 4 0 6 -8 11 -17 11 -11 0 -14 3 -7 8 6 4 13 15
17 25 10 27 30 9 24 -21 -4 -22 -3 -24 6 -11 12 16 18 19 37 19 6 0 10 6 10
14 0 8 7 16 14 19 10 4 13 1 9 -9 -3 -7 -1 -14 4 -14 4 0 9 14 9 30 1 25 -1
28 -12 19 -11 -9 -20 -8 -38 4 -13 9 -33 13 -46 10 -15 -4 -21 -2 -19 6 3 7 9
13 14 13 6 0 21 9 34 19 13 11 30 19 37 19 8 0 14 5 14 10 0 13 -1 13 -43 -5
-31 -13 -36 -13 -41 1 -11 28 -6 39 9 20 13 -17 15 -17 21 -3 8 23 46 21 64
-2 7 -11 17 -18 22 -15 4 3 8 0 8 -6 0 -7 -7 -9 -17 -6 -10 4 -23 -1 -35 -14
-25 -27 -13 -45 14 -21 16 15 26 18 45 10 22 -8 24 -7 18 11 -6 20 -4 21 47
15 33 -3 46 -2 34 3 -19 8 -19 9 2 14 24 7 27 15 12 38 -7 12 -12 11 -28 -8
-14 -15 -29 -21 -55 -20 -21 1 -37 5 -37 10 0 5 5 6 10 3 6 -3 10 1 10 11 0
13 3 14 14 5 10 -8 16 -9 21 -1 3 5 1 10 -6 10 -7 0 -9 3 -6 7 4 3 2 12 -4 20
-8 8 -8 13 -1 13 6 0 12 -4 14 -9 5 -15 58 -25 58 -11 0 7 -7 10 -15 6 -17 -6
-21 9 -5 19 14 9 53 -31 56 -57 1 -13 -3 -28 -8 -34 -6 -8 1 -15 22 -22 31
-11 39 -26 17 -36 -8 -4 -7 -5 3 -5 32 2 40 -2 40 -18 0 -13 3 -14 12 -5 9 9
6 16 -12 32 -24 21 -24 21 -3 26 29 8 39 34 13 34 -10 0 -21 -4 -24 -9 -6 -9
-56 -12 -56 -3 0 2 8 12 18 21 25 22 33 46 19 60 -6 6 -7 14 -3 18 4 5 13 0
20 -10 18 -24 35 -21 42 8 3 14 12 25 20 25 8 0 14 5 14 10 0 6 5 10 12 10 6
0 4 -8 -6 -19 -16 -18 -16 -19 9 -25 27 -7 35 -26 10 -26 -8 0 -15 -9 -15 -20
0 -11 5 -20 10 -20 21 0 9 -20 -12 -21 l-23 0 23 -12 c20 -9 26 -8 35 9 15 25
19 54 9 54 -5 0 -8 10 -7 23 1 14 8 22 21 22 13 0 18 -6 16 -19 -2 -11 1 -15
7 -11 6 3 11 13 11 21 0 11 6 13 20 9 13 -4 30 1 46 14 28 22 54 27 54 11 0
-5 5 -10 11 -10 6 0 9 6 7 12 -5 13 14 38 29 38 4 0 14 9 21 20 10 17 32 21
59 11 10 -4 -49 -48 -63 -47 -11 1 -19 -3 -19 -9 0 -16 32 -16 45 0 16 20 40
19 40 -1 0 -11 6 -14 20 -9 14 5 20 2 20 -9 0 -9 -7 -16 -15 -16 -8 0 -15 -4
-15 -10 0 -13 11 -12 32 4 14 10 16 19 8 45 -5 17 -5 29 -1 26 5 -2 16 4 26
15 16 18 16 20 1 35 -9 9 -16 23 -16 30 0 7 -7 20 -15 29 -16 16 -4 32 16 21
6 -4 10 -1 8 6 -4 32 2 37 46 37 24 0 48 3 52 5 4 3 9 -5 9 -16 1 -16 -5 -22
-22 -23 -13 -1 -22 2 -19 6 3 5 1 11 -5 15 -5 3 -10 2 -10 -3 0 -5 -9 -12 -21
-15 -28 -7 -19 -33 10 -29 20 3 21 1 9 -17 -15 -25 -4 -39 17 -21 12 10 15 10
15 -4 0 -9 4 -16 10 -16 5 0 7 7 3 16 -4 12 0 15 18 12 13 -1 27 -7 31 -13 4
-5 8 0 8 12 0 12 -5 25 -11 29 -8 4 -7 9 2 14 10 7 10 12 0 23 -8 10 -9 17 -1
22 15 9 12 25 -3 19 -11 -4 -14 7 -13 45 1 38 4 47 13 39 10 -8 13 10 13 85 0
82 -2 95 -15 91 -8 -4 -15 -2 -15 4 0 5 7 12 15 16 18 7 22 126 4 126 -6 0 -9
-14 -7 -32 2 -27 0 -32 -16 -30 -10 2 -28 14 -41 28 -13 14 -29 22 -38 18 -12
-4 -15 1 -13 28 2 18 4 36 5 40 1 9 76 48 91 48 6 0 15 -10 20 -22 5 -15 9 70
9 235 l1 257 -820 0 c-722 0 -820 -2 -820 -15 0 -8 -4 -15 -10 -15 -5 0 -10 7
-10 15 0 12 -17 15 -89 15 -80 0 -89 -2 -94 -20 -3 -11 -13 -20 -23 -20 -14 0
-15 3 -6 12 21 21 13 28 -28 28 -23 0 -40 -5 -40 -11 0 -7 -9 -9 -22 -6 -12 4
-29 1 -37 -6 -12 -10 -14 -9 -8 6 6 16 -72 17 -1553 17 l-1560 0 0 -1248z
m3396 1191 c-10 -10 -19 5 -10 18 6 11 8 11 12 0 2 -7 1 -15 -2 -18z m1674 13
c0 -19 -17 -29 -37 -22 -12 5 -13 9 -3 21 16 19 40 19 40 1z m-2033 -32 c-9
-9 -28 6 -21 18 4 6 10 6 17 -1 6 -6 8 -13 4 -17z m178 -23 c-8 -7 -55 10 -55
20 0 6 4 8 9 5 5 -3 12 2 16 12 6 15 8 14 20 -8 7 -14 12 -27 10 -29z m467
-23 c-7 -7 -12 -8 -12 -2 0 6 3 14 7 17 3 4 9 5 12 2 2 -3 -1 -11 -7 -17z
m268 -8 c0 -5 -4 -10 -10 -10 -5 0 -10 5 -10 10 0 6 5 10 10 10 6 0 10 -4 10
-10z m80 -10 c0 -5 -5 -10 -11 -10 -5 0 -7 5 -4 10 3 6 8 10 11 10 2 0 4 -4 4
-10z m290 -10 c0 -5 -4 -10 -10 -10 -5 0 -10 5 -10 10 0 6 5 10 10 10 6 0 10
-4 10 -10z m-1154 -25 c10 -8 14 -15 8 -15 -5 0 -19 7 -30 15 -10 8 -14 15 -8
15 5 0 19 -7 30 -15z m390 -22 c-11 -11 -19 6 -11 24 8 17 8 17 12 0 3 -10 2
-21 -1 -24z m434 22 c0 -8 -4 -15 -9 -15 -13 0 -22 16 -14 24 11 11 23 6 23
-9z m-756 -9 c-12 -9 -17 -35 -19 -109 -2 -54 -8 -121 -14 -150 -5 -29 -15
-90 -21 -137 -7 -47 -25 -141 -42 -210 -16 -69 -36 -160 -43 -203 -12 -64 -31
-110 -101 -247 -74 -143 -92 -171 -116 -179 -18 -7 -27 -15 -22 -22 5 -8 2 -9
-11 -2 -12 7 -38 4 -89 -12 -82 -26 -212 -92 -209 -105 2 -5 -5 -6 -14 -3 -13
5 -15 2 -9 -13 6 -15 4 -16 -5 -7 -9 9 -20 7 -46 -7 -41 -22 -58 -15 -88 34
-40 64 -37 116 6 116 23 0 35 20 18 31 -8 5 -16 3 -21 -4 -12 -20 -18 -2 -24
69 -5 64 -4 68 10 50 9 -11 16 -30 16 -42 0 -15 8 -24 24 -28 29 -7 36 -31 25
-88 -12 -62 -11 -128 2 -128 6 0 24 14 41 30 16 17 38 30 49 30 14 0 19 7 19
28 0 15 8 39 17 52 l16 25 -24 -22 c-30 -27 -39 -29 -39 -8 0 8 7 15 15 15 8
0 19 10 26 21 8 16 13 18 19 9 5 -9 12 -6 23 11 9 12 14 26 11 30 -2 4 5 10
16 14 13 4 35 -3 63 -19 99 -59 127 -65 127 -25 0 17 11 24 33 20 19 -3 1 20
-59 77 -63 59 -104 78 -104 49 0 -13 22 -37 85 -92 l30 -27 -34 19 c-52 28
-117 89 -131 122 -15 38 -7 66 18 56 41 -16 101 -22 113 -11 9 8 10 7 6 -7 -6
-16 -1 -18 41 -15 35 2 48 7 50 21 2 11 -3 17 -14 17 -25 0 -84 23 -84 32 0 4
5 8 10 8 16 0 12 14 -19 61 -16 24 -32 58 -36 74 l-7 30 25 -24 c14 -12 30
-20 36 -17 5 4 13 2 16 -4 5 -8 11 -7 21 1 17 14 19 45 3 54 -6 4 -7 14 -3 24
4 9 7 30 8 46 1 28 3 30 39 27 21 -2 45 2 52 8 9 7 15 8 19 1 4 -6 13 -8 20
-5 8 3 17 1 21 -5 8 -14 25 -14 25 -1 0 15 -61 78 -122 126 -32 25 -63 54 -69
66 -12 23 -8 21 44 -15 16 -10 31 -17 33 -14 3 3 8 32 11 65 5 56 7 59 39 71
24 9 39 9 53 1 22 -11 104 -3 96 10 -2 4 -16 5 -30 2 -14 -2 -36 3 -51 13 -14
9 -28 14 -31 11 -4 -3 -12 -1 -20 5 -10 9 -10 15 -2 25 6 8 8 21 4 31 -21 49
-14 58 60 64 62 5 135 29 135 45 0 5 -43 -1 -82 -12 -11 -3 -18 0 -18 8 0 24
60 77 100 88 40 11 56 34 46 68 -5 13 0 17 24 18 25 1 27 -1 14 -10z m1036 -6
c0 -5 -4 -10 -10 -10 -5 0 -10 5 -10 10 0 6 5 10 10 10 6 0 10 -4 10 -10z
m-2905 -10 c3 -5 1 -10 -4 -10 -6 0 -11 5 -11 10 0 6 2 10 4 10 3 0 8 -4 11
-10z m2535 0 c0 -5 -4 -10 -10 -10 -5 0 -10 5 -10 10 0 6 5 10 10 10 6 0 10
-4 10 -10z m70 -30 c0 -5 -7 -10 -16 -10 -8 0 -12 5 -9 10 3 6 10 10 16 10 5
0 9 -4 9 -10z m240 -9 c0 -12 -20 -25 -27 -18 -7 7 6 27 18 27 5 0 9 -4 9 -9z
m-804 -15 c3 -8 -7 -26 -21 -41 -29 -28 -42 -27 -30 2 9 21 12 29 14 43 2 15
31 12 37 -4z m256 -38 c-7 -7 -12 -8 -12 -2 0 6 3 14 7 17 3 4 9 5 12 2 2 -3
-1 -11 -7 -17z m705 -23 c-4 -8 -14 -15 -23 -15 -16 0 -16 2 1 20 20 22 31 20
22 -5z m-3397 -15 c0 -13 -7 -20 -20 -20 -23 0 -26 10 -8 28 18 18 28 15 28
-8z m2540 0 c0 -5 -2 -10 -4 -10 -3 0 -8 5 -11 10 -3 6 -1 10 4 10 6 0 11 -4
11 -10z m415 -31 c-4 -5 -13 -9 -21 -9 -12 0 -12 2 -2 14 14 15 32 11 23 -5z
m835 11 c0 -5 -4 -10 -10 -10 -5 0 -10 5 -10 10 0 6 5 10 10 10 6 0 10 -4 10
-10z m150 -11 c0 -5 -4 -9 -10 -9 -5 0 -10 7 -10 16 0 8 5 12 10 9 6 -3 10
-10 10 -16z m-690 1 c0 -5 -4 -10 -10 -10 -5 0 -10 5 -10 10 0 6 5 10 10 10 6
0 10 -4 10 -10z m300 -10 c0 -5 -4 -10 -10 -10 -5 0 -10 5 -10 10 0 6 5 10 10
10 6 0 10 -4 10 -10z m92 -12 c-7 -7 -12 -8 -12 -2 0 6 3 14 7 17 3 4 9 5 12
2 2 -3 -1 -11 -7 -17z m-477 3 c3 -5 1 -12 -5 -16 -5 -3 -10 1 -10 9 0 18 6
21 15 7z m965 -6 c0 -8 -4 -15 -10 -15 -5 0 -10 7 -10 15 0 8 5 15 10 15 6 0
10 -7 10 -15z m-832 -7 c-7 -19 -38 -22 -38 -4 0 10 9 16 21 16 12 0 19 -5 17
-12z m-2938 -34 c0 -8 -7 -14 -15 -14 -15 0 -21 21 -9 33 10 9 24 -2 24 -19z
m2070 10 c0 -8 -5 -12 -10 -9 -6 4 -8 11 -5 16 9 14 15 11 15 -7z m254 1 c-4
-8 -10 -12 -15 -9 -11 6 -2 24 11 24 5 0 7 -7 4 -15z m-1121 -19 c6 -16 -2
-28 -14 -20 -12 7 -11 34 0 34 5 0 11 -6 14 -14z m702 4 c3 -5 1 -10 -4 -10
-6 0 -11 5 -11 10 0 6 2 10 4 10 3 0 8 -4 11 -10z m235 -10 c0 -5 -4 -10 -10
-10 -5 0 -10 5 -10 10 0 6 5 10 10 10 6 0 10 -4 10 -10z m150 0 c0 -5 -4 -10
-10 -10 -5 0 -10 5 -10 10 0 6 5 10 10 10 6 0 10 -4 10 -10z m90 0 c0 -5 -4
-10 -10 -10 -5 0 -10 5 -10 10 0 6 5 10 10 10 6 0 10 -4 10 -10z m250 0 c0 -5
-4 -10 -10 -10 -5 0 -10 5 -10 10 0 6 5 10 10 10 6 0 10 -4 10 -10z m620 6 c0
-3 -4 -8 -10 -11 -5 -3 -10 -1 -10 4 0 6 5 11 10 11 6 0 10 -2 10 -4z m-2360
-37 c0 -6 -7 -8 -16 -5 -9 3 -18 6 -20 6 -2 0 -4 7 -4 15 0 13 4 14 20 5 11
-6 20 -16 20 -21z m1070 22 c0 -6 -4 -13 -10 -16 -5 -3 -10 1 -10 9 0 9 5 16
10 16 6 0 10 -4 10 -9z m1450 -1 c0 -5 -7 -10 -15 -10 -8 0 -15 5 -15 10 0 6
7 10 15 10 8 0 15 -4 15 -10z m-1020 -50 c0 -5 -5 -10 -11 -10 -5 0 -7 5 -4
10 3 6 8 10 11 10 2 0 4 -4 4 -10z m456 -28 c-6 -11 -46 -4 -46 7 0 4 5 12 12
19 10 10 15 9 26 -2 8 -8 12 -19 8 -24z m-1911 -12 c-5 -8 -11 -8 -17 -2 -6 6
-7 16 -3 22 5 8 11 8 17 2 6 -6 7 -16 3 -22z m615 20 c0 -5 -4 -10 -10 -10 -5
0 -10 5 -10 10 0 6 5 10 10 10 6 0 10 -4 10 -10z m1750 -10 c0 -5 -4 -10 -10
-10 -5 0 -10 5 -10 10 0 6 5 10 10 10 6 0 10 -4 10 -10z m76 -19 c-4 -6 -19
-11 -34 -11 l-27 1 24 20 c24 20 51 13 37 -10z m94 -1 c0 -5 -7 -10 -15 -10
-8 0 -15 5 -15 10 0 6 7 10 15 10 8 0 15 -4 15 -10z m-2464 -41 c3 -44 -5 -55
-22 -32 -14 19 -18 55 -7 67 14 14 28 -2 29 -35z m1954 31 c0 -5 -2 -10 -4
-10 -3 0 -8 5 -11 10 -3 6 -1 10 4 10 6 0 11 -4 11 -10z m-750 -19 c0 -12 -20
-25 -27 -18 -7 7 6 27 18 27 5 0 9 -4 9 -9z m454 -7 c5 -14 4 -15 -9 -4 -17
14 -19 20 -6 20 5 0 12 -7 15 -16z m161 -4 c3 -5 1 -10 -4 -10 -6 0 -11 5 -11
10 0 6 2 10 4 10 3 0 8 -4 11 -10z m-565 -10 c0 -5 -4 -10 -10 -10 -5 0 -10 5
-10 10 0 6 5 10 10 10 6 0 10 -4 10 -10z m1070 0 c0 -5 -5 -10 -11 -10 -5 0
-7 5 -4 10 3 6 8 10 11 10 2 0 4 -4 4 -10z m230 -5 c0 -8 -4 -15 -10 -15 -5 0
-10 7 -10 15 0 8 5 15 10 15 6 0 10 -7 10 -15z m-210 -24 c0 -5 -7 -11 -14
-14 -10 -4 -13 -1 -9 9 6 15 23 19 23 5z m-2735 -19 c0 -18 -20 -15 -23 4 -3
10 1 15 10 12 7 -3 13 -10 13 -16z m2345 9 c0 -12 -20 -25 -27 -18 -7 7 6 27
18 27 5 0 9 -4 9 -9z m160 -1 c0 -5 -4 -10 -10 -10 -5 0 -10 5 -10 10 0 6 5
10 10 10 6 0 10 -4 10 -10z m180 -5 c0 -8 -7 -15 -15 -15 -16 0 -20 12 -8 23
11 12 23 8 23 -8z m-1170 -5 c0 -5 -5 -10 -11 -10 -5 0 -7 5 -4 10 3 6 8 10
11 10 2 0 4 -4 4 -10z m1500 -10 c0 -5 -7 -10 -16 -10 -8 0 -12 5 -9 10 3 6
10 10 16 10 5 0 9 -4 9 -10z m-1400 -20 c0 -5 -4 -10 -9 -10 -6 0 -13 5 -16
10 -3 6 1 10 9 10 9 0 16 -4 16 -10z m610 2 c0 -13 -12 -22 -22 -16 -10 6 -1
24 13 24 5 0 9 -4 9 -8z m-487 -27 c-3 -9 -8 -14 -10 -11 -3 3 -2 9 2 15 9 16
15 13 8 -4z m107 -6 c0 -5 -4 -9 -10 -9 -5 0 -10 7 -10 16 0 8 5 12 10 9 6 -3
10 -10 10 -16z m890 11 c0 -5 -5 -10 -11 -10 -5 0 -7 5 -4 10 3 6 8 10 11 10
2 0 4 -4 4 -10z m-2518 -17 c22 -19 24 -43 4 -43 -19 0 -46 27 -46 46 0 19 19
18 42 -3z m1368 7 c0 -10 -32 -30 -49 -30 -19 0 -12 15 12 26 29 15 37 16 37
4z m438 -33 c-14 -42 -28 -57 -28 -30 0 12 5 25 10 28 6 3 10 15 10 26 0 11 4
18 9 14 6 -3 6 -18 -1 -38z m492 33 c0 -5 -2 -10 -4 -10 -3 0 -8 5 -11 10 -3
6 -1 10 4 10 6 0 11 -4 11 -10z m490 0 c0 -5 -7 -10 -15 -10 -8 0 -15 5 -15
10 0 6 7 10 15 10 8 0 15 -4 15 -10z m-522 -21 c-2 -6 -8 -10 -13 -10 -5 0
-11 4 -13 10 -2 6 4 11 13 11 9 0 15 -5 13 -11z m-1634 -20 c-3 -5 -10 -7 -15
-3 -5 3 -7 10 -3 15 3 5 10 7 15 3 5 -3 7 -10 3 -15z m2056 -5 c0 -8 -7 -14
-15 -14 -15 0 -21 21 -9 33 10 9 24 -2 24 -19z m40 16 c0 -5 -7 -10 -15 -10
-8 0 -15 5 -15 10 0 6 7 10 15 10 8 0 15 -4 15 -10z m-485 -36 c-17 -18 -35
-18 -35 -1 0 20 9 25 30 20 17 -4 17 -7 5 -19z m-625 -9 c11 -13 10 -14 -4 -9
-9 3 -16 10 -16 15 0 13 6 11 20 -6z m1112 -31 c-7 -12 -11 -13 -17 -4 -4 7
-2 16 6 21 18 11 23 4 11 -17z m-1622 6 c0 -5 -2 -10 -4 -10 -3 0 -8 5 -11 10
-3 6 -1 10 4 10 6 0 11 -4 11 -10z m710 -5 c0 -8 -4 -15 -10 -15 -5 0 -10 7
-10 15 0 8 5 15 10 15 6 0 10 -7 10 -15z m1110 1 c0 -3 -4 -8 -10 -11 -5 -3
-10 -1 -10 4 0 6 5 11 10 11 6 0 10 -2 10 -4z m-370 -16 c0 -5 -7 -10 -15 -10
-8 0 -15 5 -15 10 0 6 7 10 15 10 8 0 15 -4 15 -10z m238 -14 c-7 -11 -12 -28
-13 -36 -1 -8 -2 -23 -3 -32 -1 -10 -7 -18 -14 -18 -6 0 -9 3 -5 6 3 3 1 19
-5 35 -7 21 -7 33 1 43 6 7 9 15 7 17 -2 2 6 5 20 5 21 2 22 0 12 -20z m-1618
4 c0 -5 -4 -10 -10 -10 -5 0 -10 5 -10 10 0 6 5 10 10 10 6 0 10 -4 10 -10z
m255 0 c-3 -5 -13 -10 -21 -10 -8 0 -14 -5 -14 -12 0 -6 -2 -9 -5 -6 -11 11 8
38 27 38 10 0 16 -4 13 -10z m520 -20 c3 -5 1 -10 -4 -10 -6 0 -11 5 -11 10 0
6 2 10 4 10 3 0 8 -4 11 -10z m977 -2 c-9 -9 -15 -9 -24 0 -9 9 -7 12 12 12
19 0 21 -3 12 -12z m-692 -9 c0 -5 5 -7 12 -3 7 4 8 3 4 -4 -4 -6 -13 -9 -21
-5 -17 6 -20 23 -5 23 6 0 10 -5 10 -11z m270 1 c0 -5 -4 -10 -10 -10 -5 0
-10 5 -10 10 0 6 5 10 10 10 6 0 10 -4 10 -10z m108 -1 c-2 -6 -8 -10 -13 -10
-5 0 -11 4 -13 10 -2 6 4 11 13 11 9 0 15 -5 13 -11z m-1464 -8 c3 -5 0 -11
-8 -14 -15 -6 -26 1 -26 15 0 11 27 10 34 -1z m926 -1 c0 -5 -7 -10 -15 -10
-8 0 -15 5 -15 10 0 6 7 10 15 10 8 0 15 -4 15 -10z m795 0 c-3 -5 -10 -10
-16 -10 -5 0 -9 5 -9 10 0 6 7 10 16 10 8 0 12 -4 9 -10z m-1275 -10 c0 -5 -2
-10 -4 -10 -3 0 -8 5 -11 10 -3 6 -1 10 4 10 6 0 11 -4 11 -10z m754 1 c3 -5
-1 -14 -9 -21 -13 -10 -15 -9 -15 9 0 21 14 28 24 12z m386 -21 c0 -10 -5 -22
-10 -25 -6 -4 -8 -11 -5 -16 4 -5 1 -9 -4 -9 -6 0 -11 9 -11 20 0 13 -5 18
-16 13 -8 -3 -13 -11 -10 -19 3 -7 -5 -19 -17 -26 -24 -15 -61 -13 -51 3 3 5
10 7 15 4 16 -10 40 20 26 34 -8 8 -7 11 6 11 9 0 26 9 37 20 23 23 40 19 40
-10z m-430 10 c0 -5 -4 -10 -10 -10 -5 0 -10 5 -10 10 0 6 5 10 10 10 6 0 10
-4 10 -10z m-780 -10 c0 -5 -7 -10 -15 -10 -8 0 -15 5 -15 10 0 6 7 10 15 10
8 0 15 -4 15 -10z m587 -6 c-3 -3 -12 -4 -19 -1 -8 3 -5 6 6 6 11 1 17 -2 13
-5z m123 -4 c0 -5 -7 -10 -15 -10 -8 0 -15 5 -15 10 0 6 7 10 15 10 8 0 15 -4
15 -10z m167 -12 c-3 -8 -6 -5 -6 6 -1 11 2 17 5 13 3 -3 4 -12 1 -19z m33 12
c0 -5 -2 -10 -4 -10 -3 0 -8 5 -11 10 -3 6 -1 10 4 10 6 0 11 -4 11 -10z m100
-9 c0 -10 -38 -40 -43 -35 -9 10 18 52 30 47 7 -3 13 -8 13 -12z m334 3 c9
-22 8 -24 -9 -18 -8 4 -15 12 -15 20 0 19 16 18 24 -2z m-389 -4 c3 -5 -1 -10
-9 -10 -9 0 -16 5 -16 10 0 6 4 10 9 10 6 0 13 -4 16 -10z m324 -7 c-7 -10
-15 -20 -16 -22 -2 -2 -3 5 -3 17 0 14 6 22 16 22 14 0 15 -3 3 -17z m-1229
-3 c0 -5 -7 -10 -15 -10 -8 0 -15 5 -15 10 0 6 7 10 15 10 8 0 15 -4 15 -10z
m77 -12 c-3 -8 -6 -5 -6 6 -1 11 2 17 5 13 3 -3 4 -12 1 -19z m497 4 c2 -4 1
-14 -4 -21 -10 -17 -31 -5 -23 14 6 16 19 20 27 7z m439 -8 c-23 -17 -44 -18
-37 0 3 7 16 14 30 14 23 0 23 -2 7 -14z m-593 -3 c0 -13 -26 -32 -33 -24 -8
7 11 33 24 33 5 0 9 -4 9 -9z m320 -1 c0 -5 -5 -10 -11 -10 -5 0 -7 5 -4 10 3
6 8 10 11 10 2 0 4 -4 4 -10z m158 -12 c-5 -15 -23 -11 -26 6 -2 11 2 14 13
10 9 -4 14 -11 13 -16z m-914 4 c3 -5 -1 -9 -9 -9 -8 0 -15 4 -15 9 0 4 4 8 9
8 6 0 12 -4 15 -8z m207 -5 c-1 -12 -15 -9 -19 4 -3 6 1 10 8 8 6 -3 11 -8 11
-12z m-288 -13 c3 -4 -1 -13 -9 -21 -17 -18 -29 -11 -21 12 7 16 19 20 30 9z
m1057 -4 c0 -5 -5 -10 -11 -10 -5 0 -7 5 -4 10 3 6 8 10 11 10 2 0 4 -4 4 -10z
m-2220 -10 c0 -5 -5 -10 -11 -10 -5 0 -7 5 -4 10 3 6 8 10 11 10 2 0 4 -4 4
-10z m2356 -27 c-2 -3 -15 -1 -28 3 -13 4 -29 7 -35 6 -7 -2 -13 2 -13 8 0 6
4 9 9 5 5 -3 12 -1 16 5 4 6 15 4 31 -6 13 -9 23 -19 20 -21z m-3166 6 c0 -5
-4 -9 -10 -9 -5 0 -10 7 -10 16 0 8 5 12 10 9 6 -3 10 -10 10 -16z m1847 15
c-3 -3 -12 -4 -19 -1 -8 3 -5 6 6 6 11 1 17 -2 13 -5z m1066 -35 c-4 -20 -9
-25 -24 -22 -25 7 -24 20 1 28 11 3 20 11 20 17 0 6 2 9 4 7 2 -2 2 -16 -1
-30z m-453 1 c0 -5 -7 -7 -15 -4 -8 4 -15 8 -15 10 0 2 7 4 15 4 8 0 15 -4 15
-10z m775 -8 c-3 -3 -11 0 -18 7 -9 10 -8 11 6 5 10 -3 15 -9 12 -12z m-592 1
c-7 -2 -13 -11 -13 -19 0 -8 -7 -14 -15 -14 -8 0 -15 4 -15 10 0 10 30 30 45
29 6 0 4 -3 -2 -6z m146 -40 c1 -7 -3 -13 -8 -13 -11 0 -19 31 -13 50 4 11 7
10 13 -5 4 -11 8 -26 8 -32z m381 37 c0 -5 -5 -10 -11 -10 -5 0 -7 5 -4 10 3
6 8 10 11 10 2 0 4 -4 4 -10z m-333 -42 c-7 -10 -15 -18 -20 -18 -12 0 -20 28
-13 45 4 13 9 13 25 3 15 -9 17 -15 8 -30z m-3472 22 c3 -5 -1 -10 -9 -10 -9
0 -16 5 -16 10 0 6 4 10 9 10 6 0 13 -4 16 -10z m2760 0 c3 -5 1 -10 -4 -10
-6 0 -11 5 -11 10 0 6 2 10 4 10 3 0 8 -4 11 -10z m85 0 c0 -5 -5 -10 -11 -10
-5 0 -7 5 -4 10 3 6 8 10 11 10 2 0 4 -4 4 -10z m-1462 -21 c15 -24 15 -24
-14 -33 -26 -8 -41 19 -23 40 15 19 22 18 37 -7z m862 11 c0 -5 -5 -10 -11
-10 -5 0 -7 5 -4 10 3 6 8 10 11 10 2 0 4 -4 4 -10z m978 -8 c2 -8 -11 -12
-40 -12 -41 1 -42 1 -19 14 28 16 53 15 59 -2z m144 -4 c-7 -7 -12 -8 -12 -2
0 6 3 14 7 17 3 4 9 5 12 2 2 -3 -1 -11 -7 -17z m536 1 c7 -12 11 -24 8 -27
-6 -6 -35 27 -36 41 0 14 15 7 28 -14z m-2181 -31 c-2 -31 -8 -44 -20 -46 -13
-3 -17 4 -17 26 0 40 9 62 26 62 10 0 13 -12 11 -42z m713 32 c0 -5 -4 -10
-10 -10 -5 0 -10 5 -10 10 0 6 5 10 10 10 6 0 10 -4 10 -10z m1360 -12 c0 -6
-7 -7 -16 -4 -9 3 -18 6 -20 6 -3 0 -3 4 1 10 7 11 35 2 35 -12z m-216 -4 c8
-21 -2 -37 -20 -30 -8 3 -14 1 -14 -4 0 -16 -27 -11 -34 5 -5 14 5 19 31 16 8
-1 10 5 7 14 -4 9 -1 15 9 15 8 0 18 -7 21 -16z m291 -4 c3 -5 1 -10 -4 -10
-6 0 -11 5 -11 10 0 6 2 10 4 10 3 0 8 -4 11 -10z m-1230 -31 c-4 -5 -1 -9 6
-9 7 0 9 -3 6 -6 -4 -4 -13 -2 -20 4 -8 7 -17 9 -20 5 -4 -3 -7 -1 -7 5 0 12
21 22 33 15 4 -2 5 -9 2 -14z m395 12 c0 -5 -7 -14 -15 -21 -12 -10 -15 -10
-15 2 0 8 3 18 7 21 9 10 23 9 23 -2z m436 -8 c3 -10 10 -26 14 -35 7 -13 3
-22 -17 -38 -19 -14 -29 -17 -34 -9 -3 6 -13 16 -20 21 -10 6 -7 8 11 6 26 -3
28 4 14 50 -5 16 -2 22 10 22 9 0 19 -8 22 -17z m166 -11 c3 -12 -3 -22 -18
-29 -13 -6 -22 -7 -19 -3 3 5 0 12 -5 15 -8 5 -6 13 6 26 19 21 29 18 36 -9z
m128 18 c0 -5 -4 -10 -10 -10 -5 0 -10 5 -10 10 0 6 5 10 10 10 6 0 10 -4 10
-10z m-3035 -10 c3 -5 1 -10 -4 -10 -6 0 -11 5 -11 10 0 6 2 10 4 10 3 0 8 -4
11 -10z m2395 -21 c0 -5 -7 -9 -15 -9 -15 0 -20 12 -9 23 8 8 24 -1 24 -14z
m290 1 c0 -11 -4 -20 -10 -20 -5 0 -10 9 -10 20 0 11 5 20 10 20 6 0 10 -9 10
-20z m-620 -5 c0 -8 -4 -15 -9 -15 -13 0 -22 16 -14 24 11 11 23 6 23 -9z
m150 5 c0 -5 -5 -10 -11 -10 -5 0 -7 5 -4 10 3 6 8 10 11 10 2 0 4 -4 4 -10z
m215 0 c-3 -5 -10 -10 -16 -10 -5 0 -9 5 -9 10 0 6 7 10 16 10 8 0 12 -4 9
-10z m185 0 c0 -5 -4 -10 -10 -10 -5 0 -10 5 -10 10 0 6 5 10 10 10 6 0 10 -4
10 -10z m370 2 c0 -4 -9 -8 -19 -8 -11 0 -17 4 -15 8 3 4 12 8 20 8 8 0 14 -4
14 -8z m-1133 -28 c-9 -9 -28 6 -21 18 4 6 10 6 17 -1 6 -6 8 -13 4 -17z m497
10 c9 -24 8 -25 -13 -12 -11 7 -17 16 -15 20 8 13 21 9 28 -8z m186 6 c0 -5
-4 -10 -10 -10 -5 0 -10 5 -10 10 0 6 5 10 10 10 6 0 10 -4 10 -10z m-530 -10
c0 -5 -2 -10 -4 -10 -3 0 -8 5 -11 10 -3 6 -1 10 4 10 6 0 11 -4 11 -10z m150
-6 c0 -8 -5 -12 -10 -9 -6 4 -8 11 -5 16 9 14 15 11 15 -7z m340 6 c0 -5 -4
-10 -10 -10 -5 0 -10 5 -10 10 0 6 5 10 10 10 6 0 10 -4 10 -10z m-195 -10
c-3 -5 -10 -10 -16 -10 -5 0 -9 5 -9 10 0 6 7 10 16 10 8 0 12 -4 9 -10z
m-1555 -10 c0 -5 -5 -10 -11 -10 -5 0 -7 5 -4 10 3 6 8 10 11 10 2 0 4 -4 4
-10z m1735 0 c3 -5 -1 -10 -9 -10 -8 0 -18 5 -21 10 -3 6 1 10 9 10 8 0 18 -4
21 -10z m139 -5 c3 -8 1 -15 -3 -15 -5 0 -11 7 -15 15 -3 8 -1 15 3 15 5 0 11
-7 15 -15z m43 9 c-3 -3 -12 -4 -19 -1 -8 3 -5 6 6 6 11 1 17 -2 13 -5z m273
-9 c0 -1 -6 -8 -14 -14 -11 -9 -15 -7 -19 8 -3 14 0 17 14 14 11 -3 19 -7 19
-8z m-3030 -11 c0 -8 -4 -12 -10 -9 -5 3 -10 10 -10 16 0 5 5 9 10 9 6 0 10
-7 10 -16z m2510 -10 c0 -8 -9 -14 -20 -14 -22 0 -26 10 -8 28 13 13 28 7 28
-14z m-110 6 c0 -5 -2 -10 -4 -10 -3 0 -8 5 -11 10 -3 6 -1 10 4 10 6 0 11 -4
11 -10z m-1899 -41 l-10 -24 0 26 c-1 14 2 29 6 33 12 12 14 -9 4 -35z m2073
25 c10 -27 7 -36 -9 -20 -8 8 -15 19 -15 25 0 17 17 13 24 -5z m36 -23 c-5
-10 -6 -22 -2 -26 4 -5 2 -5 -4 -2 -6 4 -9 18 -7 32 3 13 9 22 14 19 5 -3 5
-13 -1 -23z m-970 15 c0 -3 -4 -8 -10 -11 -5 -3 -10 -1 -10 4 0 6 5 11 10 11
6 0 10 -2 10 -4z m645 -16 c3 -5 1 -10 -4 -10 -6 0 -11 5 -11 10 0 6 2 10 4
10 3 0 8 -4 11 -10z m-1687 -36 c16 -19 38 -37 48 -38 19 -3 21 -35 3 -47 -5
-3 -8 -16 -7 -30 3 -20 -1 -24 -22 -24 -17 0 -26 6 -29 20 -2 11 -14 30 -27
42 -24 22 -34 83 -14 83 5 0 7 7 4 15 -11 27 14 16 44 -21z m1892 26 c0 -5 -7
-10 -15 -10 -8 0 -15 5 -15 10 0 6 7 10 15 10 8 0 15 -4 15 -10z m-1660 -10
c8 -5 11 -10 5 -10 -5 0 -17 5 -25 10 -8 5 -10 10 -5 10 6 0 17 -5 25 -10z
m1735 0 c3 -6 -1 -7 -9 -4 -18 7 -21 14 -7 14 6 0 13 -4 16 -10z m-2937 -18
c2 -7 -3 -12 -12 -12 -9 0 -16 7 -16 16 0 17 22 14 28 -4z m1752 -17 c0 -5 -5
-3 -10 5 -5 8 -10 20 -10 25 0 6 5 3 10 -5 5 -8 10 -19 10 -25z m1010 3 c0 -5
-9 -3 -20 4 -11 7 -20 16 -20 20 0 5 9 3 20 -4 11 -7 20 -16 20 -20z m-440 -8
c0 -5 -4 -10 -9 -10 -6 0 -13 5 -16 10 -3 6 1 10 9 10 9 0 16 -4 16 -10z
m-1435 -19 c3 -5 1 -12 -5 -16 -5 -3 -10 1 -10 9 0 18 6 21 15 7z m1825 -12
c0 -5 -4 -9 -10 -9 -5 0 -10 7 -10 16 0 8 5 12 10 9 6 -3 10 -10 10 -16z m95
11 c3 -5 1 -10 -4 -10 -6 0 -11 5 -11 10 0 6 2 10 4 10 3 0 8 -4 11 -10z
m-575 -4 c0 -3 -4 -8 -10 -11 -5 -3 -10 -1 -10 4 0 6 5 11 10 11 6 0 10 -2 10
-4z m217 -23 c-3 -3 -11 -2 -17 2 -9 6 -9 10 1 16 14 8 27 -7 16 -18z m-1182
7 c3 -5 1 -10 -4 -10 -6 0 -11 5 -11 10 0 6 2 10 4 10 3 0 8 -4 11 -10z m-885
-4 c0 -3 -4 -8 -10 -11 -5 -3 -10 -1 -10 4 0 6 5 11 10 11 6 0 10 -2 10 -4z
m405 -6 c3 -6 -4 -10 -17 -10 -18 0 -20 2 -8 10 19 12 18 12 25 0z m1400 0 c3
-5 1 -10 -4 -10 -6 0 -11 5 -11 10 0 6 2 10 4 10 3 0 8 -4 11 -10z m-295 -4
c0 -3 -4 -8 -10 -11 -5 -3 -10 -1 -10 4 0 6 5 11 10 11 6 0 10 -2 10 -4z m940
-5 c0 -12 -28 -22 -34 -12 -3 5 -3 11 1 15 9 9 33 7 33 -3z m-85 -11 c3 -5 1
-10 -4 -10 -6 0 -11 5 -11 10 0 6 2 10 4 10 3 0 8 -4 11 -10z m-738 -26 c-9
-9 -28 6 -21 18 4 6 10 6 17 -1 6 -6 8 -13 4 -17z m120 2 c-13 -27 -27 -25
-27 5 0 12 7 19 19 19 17 0 18 -3 8 -24z m393 15 c0 -12 -20 -25 -27 -18 -7 7
6 27 18 27 5 0 9 -4 9 -9z m112 -6 c0 -5 -5 -11 -11 -13 -6 -2 -11 4 -11 13 0
9 5 15 11 13 6 -2 11 -8 11 -13z m75 -1 c2 -5 -2 -17 -9 -27 -10 -12 -17 -14
-28 -6 -13 9 -12 10 3 5 14 -5 16 -1 11 21 -5 19 -3 24 6 21 8 -2 15 -9 17
-14z m-917 -15 c0 -5 -7 -9 -15 -9 -15 0 -20 12 -9 23 8 8 24 -1 24 -14z m670
-30 c-14 -25 -26 -18 -15 8 5 10 7 25 6 33 -1 11 1 11 9 -2 8 -13 8 -24 0 -39z
m334 28 c-1 -9 2 -17 7 -17 5 0 9 5 9 11 0 5 4 7 10 4 6 -4 3 -18 -7 -38 -17
-30 -18 -31 -21 -9 -2 15 -9 22 -17 18 -13 -5 -28 38 -17 49 12 12 37 -1 36
-18z m-2024 3 c0 -5 -4 -10 -10 -10 -5 0 -10 5 -10 10 0 6 5 10 10 10 6 0 10
-4 10 -10z m1460 -5 c0 -9 -6 -12 -16 -8 -13 5 -13 7 -2 14 17 11 18 11 18 -6z
m670 -27 c0 -4 -7 -8 -15 -8 -8 0 -15 4 -15 9 0 5 -3 18 -7 28 -6 17 -5 17 15
-1 12 -11 22 -23 22 -28z m-2057 10 c4 -12 4 -24 1 -27 -6 -7 -24 20 -24 37 0
21 17 13 23 -10z m352 12 c3 -5 -1 -10 -10 -10 -9 0 -13 5 -10 10 3 6 8 10 10
10 2 0 7 -4 10 -10z m1352 -37 c-11 -10 -26 8 -20 23 5 15 7 14 15 -1 6 -9 7
-19 5 -22z m193 17 c12 -8 9 -10 -13 -10 -16 0 -26 4 -22 10 8 12 16 12 35 0z
m-1130 -20 c0 -5 -2 -10 -4 -10 -3 0 -8 5 -11 10 -3 6 -1 10 4 10 6 0 11 -4
11 -10z m47 4 c-3 -3 -12 -4 -19 -1 -8 3 -5 6 6 6 11 1 17 -2 13 -5z m301 -24
c0 -16 -4 -30 -9 -30 -5 0 -9 5 -9 10 0 16 -40 12 -46 -5 -4 -8 -13 -15 -22
-15 -12 0 -11 4 6 20 12 11 25 20 30 20 5 0 15 7 22 15 19 23 27 18 28 -15z
m82 20 c0 -5 -4 -10 -10 -10 -5 0 -10 5 -10 10 0 6 5 10 10 10 6 0 10 -4 10
-10z m200 -10 c0 -5 -2 -10 -4 -10 -3 0 -8 5 -11 10 -3 6 -1 10 4 10 6 0 11
-4 11 -10z m260 0 c0 -5 -2 -10 -4 -10 -3 0 -8 5 -11 10 -3 6 -1 10 4 10 6 0
11 -4 11 -10z m-1083 -32 c-13 -8 -39 10 -31 23 3 5 14 3 24 -3 13 -9 16 -14
7 -20z m103 22 c0 -5 -4 -10 -10 -10 -5 0 -10 5 -10 10 0 6 5 10 10 10 6 0 10
-4 10 -10z m910 6 c0 -3 -4 -8 -10 -11 -5 -3 -10 -1 -10 4 0 6 5 11 10 11 6 0
10 -2 10 -4z m347 -2 c-3 -3 -12 -4 -19 -1 -8 3 -5 6 6 6 11 1 17 -2 13 -5z
m-1898 -14 c19 0 51 -40 57 -69 l7 -32 -39 6 c-39 7 -84 46 -80 69 3 23 18 37
33 32 8 -3 18 -6 22 -6z m1201 -15 c11 -13 10 -14 -4 -9 -9 3 -16 10 -16 15 0
13 6 11 20 -6z m-550 1 c0 -3 -4 -8 -10 -11 -5 -3 -10 -1 -10 4 0 6 5 11 10
11 6 0 10 -2 10 -4z m290 -6 c0 -5 -5 -10 -11 -10 -5 0 -7 5 -4 10 3 6 8 10
11 10 2 0 4 -4 4 -10z m330 -5 c7 -8 8 -15 2 -15 -5 0 -15 7 -22 15 -7 8 -8
15 -2 15 5 0 15 -7 22 -15z m620 5 c0 -5 -4 -10 -10 -10 -5 0 -10 5 -10 10 0
6 5 10 10 10 6 0 10 -4 10 -10z m-1300 -10 c0 -5 -2 -10 -4 -10 -3 0 -8 5 -11
10 -3 6 -1 10 4 10 6 0 11 -4 11 -10z m150 -26 c0 -8 -4 -14 -10 -14 -5 0 -10
9 -10 21 0 11 5 17 10 14 6 -3 10 -13 10 -21z m60 17 c0 -6 -4 -13 -10 -16 -5
-3 -10 1 -10 9 0 9 5 16 10 16 6 0 10 -4 10 -9z m420 -16 c-7 -8 -20 -15 -29
-14 -11 0 -10 3 7 11 12 6 22 16 22 21 0 6 3 7 6 4 4 -4 1 -13 -6 -22z m110 0
c0 -8 -4 -15 -10 -15 -5 0 -7 7 -4 15 4 8 8 15 10 15 2 0 4 -7 4 -15z m-744
-20 c-31 -27 -36 -29 -36 -17 0 7 49 41 60 42 3 0 -8 -11 -24 -25z m309 15 c3
-6 -1 -13 -9 -16 -9 -3 -16 -16 -16 -28 -1 -20 -1 -20 -15 4 -19 32 -19 44 0
36 8 -3 15 -1 15 4 0 13 17 13 25 0z m365 6 c0 -3 -4 -8 -10 -11 -5 -3 -10 -1
-10 4 0 6 5 11 10 11 6 0 10 -2 10 -4z m-590 -16 c0 -5 -4 -10 -10 -10 -5 0
-10 5 -10 10 0 6 5 10 10 10 6 0 10 -4 10 -10z m280 0 c0 -5 -5 -10 -11 -10
-5 0 -7 5 -4 10 3 6 8 10 11 10 2 0 4 -4 4 -10z m178 -2 c-3 -21 35 -73 57
-76 11 -2 22 -6 25 -9 3 -3 -5 -3 -17 0 -13 3 -23 1 -23 -4 0 -6 -9 -5 -20 1
-11 6 -18 15 -15 20 3 4 -2 15 -10 23 -16 16 -20 39 -8 50 10 10 14 8 11 -5z
m172 -19 c0 -5 5 -7 10 -4 6 3 10 1 10 -5 0 -15 -32 -9 -38 8 -2 6 1 12 7 12
6 0 11 -5 11 -11z m-690 -8 c0 -6 -4 -13 -10 -16 -5 -3 -10 1 -10 9 0 9 5 16
10 16 6 0 10 -4 10 -9z m70 -12 c0 -14 -10 -24 -30 -32 -19 -7 -30 -19 -31
-32 0 -20 0 -20 -8 0 -6 14 -3 24 10 33 11 8 16 19 12 29 -5 13 -2 15 15 11
12 -4 22 -2 22 3 0 5 2 9 5 9 3 0 5 -9 5 -21z m415 1 c20 -22 15 -34 -15 -35
-11 0 -19 -4 -17 -10 1 -5 6 -9 11 -7 4 1 14 -3 22 -9 12 -10 13 -9 8 5 -3 9
-1 16 5 16 6 0 11 -11 11 -25 0 -27 -9 -32 -28 -13 -10 10 -15 10 -21 -1 -11
-18 -31 -5 -31 20 0 23 -6 24 -27 4 -8 -8 -19 -13 -24 -10 -5 4 -9 1 -9 -6 0
-6 -11 0 -25 15 -30 33 -32 40 -5 26 17 -9 22 -7 29 12 8 20 10 21 16 6 8 -21
60 -21 78 0 10 13 9 15 -5 9 -18 -6 -24 3 -11 16 10 11 19 8 38 -13z m-365
-11 c0 -11 -27 -12 -34 0 -3 4 -3 11 0 14 8 8 34 -3 34 -14z m170 11 c0 -5 -4
-10 -10 -10 -5 0 -10 5 -10 10 0 6 5 10 10 10 6 0 10 -4 10 -10z m120 0 c0 -5
-2 -10 -4 -10 -3 0 -8 5 -11 10 -3 6 -1 10 4 10 6 0 11 -4 11 -10z m430 0 c0
-5 -9 -10 -19 -10 -11 0 -23 5 -26 10 -4 6 5 10 19 10 14 0 26 -4 26 -10z
m-650 -11 c0 -5 -4 -7 -10 -4 -20 12 -32 -7 -13 -21 10 -7 13 -14 6 -14 -16 0
-44 30 -38 41 8 13 55 11 55 -2z m160 1 c0 -5 -2 -10 -4 -10 -3 0 -8 5 -11 10
-3 6 -1 10 4 10 6 0 11 -4 11 -10z m323 -32 c-4 -20 -11 -28 -26 -28 -19 0
-19 1 -4 18 10 10 17 27 17 37 0 12 3 15 9 10 5 -6 7 -22 4 -37z m-984 14 c5
-10 6 -24 2 -31 -14 -23 0 -49 31 -60 38 -13 39 -13 36 0 -2 6 12 12 29 14 18
1 30 -1 27 -6 -3 -5 -12 -9 -20 -9 -8 0 -14 -7 -14 -15 0 -8 -14 -17 -35 -21
-19 -3 -35 -10 -35 -14 0 -10 -27 -21 -62 -25 -16 -2 -28 0 -28 5 0 6 5 10 10
10 21 0 9 18 -16 24 -22 6 -24 9 -13 22 10 13 10 17 -1 24 -8 5 -17 7 -21 4
-4 -2 -10 0 -14 6 -3 5 -15 10 -26 10 -10 0 -19 5 -19 10 0 7 -6 7 -20 0 -18
-9 -20 -8 -20 15 0 18 8 29 26 37 24 11 28 9 55 -22 21 -26 29 -30 29 -17 0 9
5 17 10 17 10 0 14 -14 11 -37 -1 -9 11 -13 36 -12 22 1 30 3 18 6 -30 8 -35
24 -19 55 17 32 29 35 43 10z m951 3 c10 -12 10 -15 -4 -15 -9 0 -16 7 -16 15
0 8 2 15 4 15 2 0 9 -7 16 -15z m77 -1 c-3 -3 -12 -4 -19 -1 -8 3 -5 6 6 6 11
1 17 -2 13 -5z m-797 -14 c0 -5 -4 -10 -10 -10 -5 0 -10 5 -10 10 0 6 5 10 10
10 6 0 10 -4 10 -10z m185 0 c3 -6 -1 -13 -10 -16 -19 -8 -30 0 -20 15 8 14
22 14 30 1z m156 -23 c-8 -8 -11 -7 -11 4 0 20 13 34 18 19 3 -7 -1 -17 -7
-23z m544 23 c3 -5 -1 -10 -10 -10 -9 0 -13 5 -10 10 3 6 8 10 10 10 2 0 7 -4
10 -10z m-917 -28 c2 -12 -1 -22 -7 -22 -6 0 -11 5 -11 10 0 6 -7 10 -15 10
-8 0 -15 5 -15 11 0 5 5 7 10 4 6 -3 10 -1 10 5 0 21 25 4 28 -18z m-64 3 c3
-8 1 -15 -3 -15 -5 0 -11 7 -15 15 -3 8 -1 15 3 15 5 0 11 -7 15 -15z m131 -5
c3 -5 1 -10 -4 -10 -6 0 -11 5 -11 10 0 6 2 10 4 10 3 0 8 -4 11 -10z m30 0
c3 -5 1 -10 -4 -10 -6 0 -11 5 -11 10 0 6 2 10 4 10 3 0 8 -4 11 -10z m555 -5
c0 -8 -4 -15 -10 -15 -5 0 -10 7 -10 15 0 8 5 15 10 15 6 0 10 -7 10 -15z m45
5 c-3 -5 -11 -10 -16 -10 -6 0 -7 5 -4 10 3 6 11 10 16 10 6 0 7 -4 4 -10z
m-1855 -20 c0 -5 -5 -10 -11 -10 -5 0 -7 5 -4 10 3 6 8 10 11 10 2 0 4 -4 4
-10z m999 1 c8 -5 9 -11 3 -15 -5 -3 -15 1 -22 9 -14 16 -3 20 19 6z m839 -13
c-3 -7 -15 -14 -29 -16 -23 -2 -23 -2 -5 13 24 18 39 20 34 3z m-2328 -91 c0
-4 -8 -6 -19 -2 -10 3 -29 2 -41 -3 -22 -8 -22 -9 11 -16 32 -7 33 -8 12 -16
-26 -11 -30 -25 -9 -33 9 -4 12 -14 9 -26 -3 -12 -1 -21 6 -21 6 0 11 7 11 15
0 8 5 15 10 15 18 0 10 -25 -12 -39 -24 -15 -96 -23 -113 -13 -5 4 -14 7 -20
7 -5 1 -9 5 -8 11 2 11 -62 13 -73 2 -4 -5 0 -8 9 -8 10 0 17 -5 17 -11 0 -6
-8 -8 -19 -4 -11 3 -26 -1 -35 -10 -33 -33 -15 -1 25 43 23 26 46 57 51 68 10
22 56 38 82 28 8 -3 16 4 20 19 5 23 8 24 46 14 22 -6 40 -15 40 -20z m1210
13 c0 -5 -7 -10 -15 -10 -8 0 -15 5 -15 10 0 6 7 10 15 10 8 0 15 -4 15 -10z
m130 0 c0 -5 -2 -10 -4 -10 -3 0 -8 5 -11 10 -3 6 -1 10 4 10 6 0 11 -4 11
-10z m1400 0 c0 -5 -2 -10 -4 -10 -3 0 -8 5 -11 10 -3 6 -1 10 4 10 6 0 11 -4
11 -10z m-3083 -22 c-3 -8 -6 -5 -6 6 -1 11 2 17 5 13 3 -3 4 -12 1 -19z m420
16 c-3 -3 -12 -4 -19 -1 -8 3 -5 6 6 6 11 1 17 -2 13 -5z m101 -22 c2 -7 -5
-12 -17 -12 -14 0 -19 5 -14 15 6 17 25 15 31 -3z m52 7 c0 -17 -28 -40 -35
-29 -3 5 -1 10 6 10 8 0 8 4 -1 15 -10 13 -9 15 9 15 11 0 21 -5 21 -11z
m2440 -10 c0 -6 -4 -7 -10 -4 -5 3 -10 11 -10 16 0 6 5 7 10 4 6 -3 10 -11 10
-16z m-2287 -26 c18 -6 23 -38 7 -48 -5 -3 -10 3 -10 14 0 12 -6 21 -14 21 -7
0 -20 8 -27 17 -12 15 -12 16 6 9 11 -5 28 -11 38 -13z m-387 -20 c-10 -10
-19 5 -10 18 6 11 8 11 12 0 2 -7 1 -15 -2 -18z m334 -17 c-14 -14 -22 -2 -14
18 5 14 9 15 15 4 4 -7 4 -17 -1 -22z m-36 8 c9 -22 -3 -32 -14 -14 -12 19
-12 30 -1 30 5 0 12 -7 15 -16z m-1072 -34 c-5 -37 -22 -29 -22 10 0 20 4 28
13 24 9 -3 12 -16 9 -34z m1128 -4 c0 -15 -24 -28 -34 -19 -7 7 13 33 25 33 5
0 9 -6 9 -14z m85 -14 c-3 -3 -11 0 -18 7 -9 10 -8 11 6 5 10 -3 15 -9 12 -12z
m-748 -18 c22 -30 50 -35 186 -34 97 1 115 -4 96 -27 -10 -12 -10 -16 1 -23
11 -7 8 -11 -13 -21 -15 -7 -27 -19 -27 -27 0 -11 3 -12 15 -2 8 6 19 9 26 5
8 -6 7 -10 -2 -16 -11 -6 -11 -13 -3 -27 9 -14 8 -22 -2 -37 -14 -18 -13 -91
2 -128 8 -22 -5 -22 -22 1 -11 14 -13 14 -14 2 0 -13 -1 -13 -10 0 -9 13 -12
13 -24 -2 -7 -10 -21 -18 -31 -18 -29 0 -57 -41 -53 -77 6 -46 -8 -41 -34 12
-25 50 -42 60 -32 18 6 -27 6 -28 -9 -7 -12 15 -18 57 -23 155 -5 120 -9 141
-35 195 -16 33 -29 66 -29 72 0 20 17 13 37 -14z m790 -1 c-3 -3 -11 -2 -17 2
-9 6 -9 10 1 16 14 8 27 -7 16 -18z m53 11 c0 -9 -5 -14 -12 -12 -18 6 -21 28
-4 28 9 0 16 -7 16 -16z m124 -25 c-8 -14 -24 -10 -24 6 0 9 6 12 15 9 8 -4
12 -10 9 -15z m153 -8 c3 -13 11 -17 26 -14 18 4 19 3 7 -6 -13 -9 -12 -11 3
-11 14 0 17 -5 12 -20 -5 -14 -2 -20 9 -20 24 0 19 -17 -6 -23 -12 -4 -20 -9
-16 -12 3 -3 32 1 64 10 59 15 108 13 120 -7 4 -6 -3 -8 -17 -6 -16 2 -25 -3
-27 -14 -2 -13 1 -16 12 -12 11 4 16 0 16 -14 0 -11 -3 -22 -7 -24 -9 -3 -145
-156 -180 -201 -21 -27 -24 -28 -44 -14 -12 9 -28 13 -35 10 -12 -5 -19 8 -15
30 0 4 -6 7 -14 7 -8 0 -15 3 -15 8 0 4 -19 23 -42 42 -23 19 -38 28 -33 20 4
-8 -2 -5 -14 7 -25 26 -27 38 -6 29 8 -3 14 0 12 6 -3 14 102 79 163 101 40
15 41 16 10 11 -19 -4 -52 -15 -72 -25 -21 -11 -42 -19 -48 -19 -6 0 -18 -7
-26 -15 -23 -22 -34 -18 -36 13 -2 46 -3 50 -11 58 -12 12 -8 24 8 24 8 0 15
5 15 12 0 6 3 8 6 5 4 -4 1 -13 -6 -22 -7 -9 -10 -18 -6 -22 7 -7 56 47 56 63
0 13 -72 13 -81 0 -4 -4 -10 -3 -13 3 -4 6 -2 11 3 11 6 0 11 7 11 15 0 20 24
19 40 0 10 -13 15 -13 21 -3 6 9 16 4 36 -18 l29 -30 20 23 c10 13 25 21 32
18 7 -3 12 5 12 20 0 29 20 34 27 6z m-307 -16 c0 -8 -7 -15 -15 -15 -8 0 -15
7 -15 15 0 8 7 15 15 15 8 0 15 -7 15 -15z m221 -1 c12 -14 11 -16 -5 -13 -11
2 -21 10 -24 17 -5 17 13 15 29 -4z m489 6 c0 -5 -4 -10 -9 -10 -6 0 -13 5
-16 10 -3 6 1 10 9 10 9 0 16 -4 16 -10z m-304 -15 c-3 -8 0 -15 7 -16 69 -5
82 -15 36 -27 -26 -7 -35 -5 -37 5 -2 8 -10 12 -18 9 -7 -3 -16 -1 -20 5 -9
16 4 39 22 39 10 0 14 -5 10 -15z m-360 -8 c8 3 14 0 14 -6 0 -6 -11 -11 -25
-11 -25 0 -32 10 -18 24 4 4 9 3 11 -3 2 -5 10 -7 18 -4z m9 -88 c11 -17 2
-18 -19 -3 -17 12 -17 14 -4 14 9 0 20 -5 23 -11z m40 -41 c-12 -39 -25 -44
-25 -10 0 22 5 32 16 32 11 0 14 -6 9 -22z m-85 -13 c0 -9 -6 -12 -15 -9 -8 4
-15 10 -15 15 0 5 7 9 15 9 8 0 15 -7 15 -15z m-440 -25 c0 -5 -4 -10 -9 -10
-6 0 -13 5 -16 10 -3 6 1 10 9 10 9 0 16 -4 16 -10z m338 -21 c-2 -6 -8 -10
-13 -10 -5 0 -11 4 -13 10 -2 6 4 11 13 11 9 0 15 -5 13 -11z m152 1 c0 -5 -4
-10 -10 -10 -5 0 -10 5 -10 10 0 6 5 10 10 10 6 0 10 -4 10 -10z m320 -150 c0
-12 -61 -72 -68 -66 -8 9 39 76 54 76 8 0 14 -4 14 -10z m-310 -35 c0 -8 -4
-15 -10 -15 -5 0 -10 7 -10 15 0 8 5 15 10 15 6 0 10 -7 10 -15z m210 -15 c0
-5 -4 -10 -10 -10 -5 0 -10 5 -10 10 0 6 5 10 10 10 6 0 10 -4 10 -10z m-700
-4 c0 -2 -7 -7 -16 -10 -8 -3 -12 -2 -9 4 6 10 25 14 25 6z m-255 -35 c3 -5 1
-12 -5 -16 -5 -3 -10 1 -10 9 0 18 6 21 15 7z m-75 -31 c0 -5 -4 -10 -10 -10
-5 0 -10 5 -10 10 0 6 5 10 10 10 6 0 10 -4 10 -10z m215 -10 c3 -5 1 -10 -4
-10 -6 0 -11 5 -11 10 0 6 2 10 4 10 3 0 8 -4 11 -10z m-150 -30 c3 -5 2 -10
-4 -10 -5 0 -13 5 -16 10 -3 6 -2 10 4 10 5 0 13 -4 16 -10z m-90 -20 c10 -11
16 -22 13 -25 -2 -3 -14 6 -26 20 -26 30 -13 34 13 5z m-220 -40 c3 -5 -3 -10
-14 -10 -12 0 -21 5 -21 10 0 6 6 10 14 10 8 0 18 -4 21 -10z m-95 -10 c0 -5
-4 -10 -10 -10 -5 0 -10 5 -10 10 0 6 5 10 10 10 6 0 10 -4 10 -10z m197 4
c-3 -3 -12 -4 -19 -1 -8 3 -5 6 6 6 11 1 17 -2 13 -5z m3049 -11 c17 -23 17
-33 0 -33 -18 0 -39 27 -31 40 9 14 16 13 31 -7z m-3212 -42 c-9 -10 -26 18
-18 30 5 9 9 8 14 -7 4 -10 6 -21 4 -23z m1156 -41 c0 -11 -6 -20 -14 -20 -9
0 -12 7 -9 20 3 11 9 20 14 20 5 0 9 -9 9 -20z m1798 -32 c19 -19 14 -33 -6
-15 -15 13 -21 14 -32 4 -12 -10 -12 -9 -1 6 16 20 23 21 39 5z m237 -9 c-4
-5 -13 -9 -22 -9 -13 0 -13 3 -3 15 13 15 35 11 25 -6z m-189 -28 c-4 -6 -15
-11 -24 -10 -11 0 -12 3 -4 6 6 2 12 12 12 21 0 12 3 13 11 5 6 -6 8 -16 5
-22z m-541 -31 c3 -5 1 -10 -4 -10 -6 0 -11 5 -11 10 0 6 2 10 4 10 3 0 8 -4
11 -10z m-1628 -42 c-3 -8 -6 -5 -6 6 -1 11 2 17 5 13 3 -3 4 -12 1 -19z
m1621 11 c-2 -6 -8 -10 -13 -10 -5 0 -11 4 -13 10 -2 6 4 11 13 11 9 0 15 -5
13 -11z m-1733 -9 c-3 -5 -12 -7 -20 -3 -21 7 -19 13 6 13 11 0 18 -4 14 -10z
m1821 -107 c-10 -10 -19 5 -10 18 6 11 8 11 12 0 2 -7 1 -15 -2 -18z m-419 -5
c-3 -8 -6 -5 -6 6 -1 11 2 17 5 13 3 -3 4 -12 1 -19z m503 0 c0 -16 -3 -19
-11 -11 -6 6 -8 16 -5 22 11 17 16 13 16 -11z m-1738 -40 c-6 -6 -15 -8 -19
-4 -4 4 -1 11 7 16 19 12 27 3 12 -12z m-158 -9 c-3 -5 -10 -7 -15 -3 -5 3 -7
10 -3 15 3 5 10 7 15 3 5 -3 7 -10 3 -15z m92 9 c5 -8 2 -9 -10 -5 -10 4 -15
3 -11 -3 3 -6 18 -7 33 -4 l27 6 -30 -25 -30 -25 -21 22 c-14 14 -17 25 -11
34 12 15 44 16 53 0z m97 -30 c25 -19 79 -178 60 -178 -5 0 -9 -12 -8 -27 0
-23 -5 -29 -27 -31 -31 -4 -92 51 -120 108 -16 32 -16 36 -1 47 9 7 13 20 10
32 -4 17 -2 19 20 10 33 -12 37 -11 23 6 -7 8 -17 12 -24 9 -6 -3 0 4 13 15
27 24 32 25 54 9z m1067 -18 c0 -5 -5 -10 -11 -10 -5 0 -7 5 -4 10 3 6 8 10
11 10 2 0 4 -4 4 -10z m-1216 -59 c3 -5 -1 -11 -9 -15 -9 -3 -15 0 -15 9 0 16
16 20 24 6z m-84 -86 c0 -9 -9 -15 -22 -14 -18 1 -19 2 -5 6 9 2 15 9 12 14
-4 5 -1 9 4 9 6 0 11 -7 11 -15z m58 -20 c-3 -3 -9 2 -12 12 -6 14 -5 15 5 6
7 -7 10 -15 7 -18z m1497 -435 c-3 -5 -14 -10 -23 -10 -15 0 -15 2 -2 10 20
13 33 13 25 0z m-534 -50 c16 -13 29 -32 29 -41 0 -25 -39 -69 -61 -69 -11 0
-17 -4 -14 -10 3 -5 5 -10 3 -10 -2 -1 -120 -3 -263 -6 -143 -3 -272 -10 -286
-15 -31 -12 -53 -51 -37 -67 10 -10 497 -7 565 4 31 5 93 47 93 63 0 5 -15 13
-32 19 -30 9 -26 10 35 9 37 -1 67 -4 67 -7 0 -4 -10 -15 -23 -26 -207 -177
-380 -328 -392 -340 -5 -6 -36 -35 -68 -63 -41 -36 -65 -51 -85 -50 -26 1 -26
1 6 10 32 9 44 28 20 30 -7 1 0 4 16 8 16 3 31 12 33 18 4 10 -24 11 -124 7
-250 -12 -316 -19 -321 -31 -2 -9 9 -13 35 -14 25 -1 30 -3 13 -6 -56 -8 -70
-14 -70 -27 0 -10 -14 -14 -49 -14 -27 0 -86 -3 -131 -7 -46 -4 -80 -3 -78 1
25 43 147 320 180 409 16 44 30 81 32 82 5 6 210 13 527 19 298 6 316 7 312
24 -3 12 2 20 15 24 33 11 38 86 6 86 -8 0 -14 5 -14 10 0 17 30 7 61 -20z
m49 0 c0 -5 -2 -10 -4 -10 -3 0 -8 5 -11 10 -3 6 -1 10 4 10 6 0 11 -4 11 -10z
m-323 -176 c-3 -3 -12 -4 -19 -1 -8 3 -5 6 6 6 11 1 17 -2 13 -5z m146 -1
c-24 -2 -62 -2 -85 0 -24 2 -5 4 42 4 47 0 66 -2 43 -4z m-315 -10 c-10 -2
-26 -2 -35 0 -10 3 -2 5 17 5 19 0 27 -2 18 -5z m-200 -430 c-10 -2 -26 -2
-35 0 -10 3 -2 5 17 5 19 0 27 -2 18 -5z m-1323 -143 c14 -5 25 -14 25 -20 0
-5 9 -10 20 -10 11 0 20 -5 20 -10 0 -6 -14 -5 -34 4 -20 8 -56 13 -85 11 -40
-3 -49 -1 -44 11 3 9 -2 14 -13 15 -18 0 -18 1 1 8 22 9 74 5 110 -9z m1184
-168 c-79 -85 -87 -89 -219 -96 -63 -3 -104 -2 -91 2 17 5 30 24 48 69 l24 61
127 7 c110 5 140 8 161 14 2 0 -20 -25 -50 -57z m-266 21 c-7 -2 -13 -11 -13
-18 0 -7 -13 -18 -30 -24 -28 -9 -42 0 -20 14 15 9 12 25 -4 25 -7 0 -26 -18
-41 -40 -23 -33 -29 -37 -41 -25 -8 7 -14 20 -14 28 0 19 -28 16 -41 -4 -7
-10 -8 -7 -3 11 6 23 6 24 -12 10 -17 -14 -18 -14 -6 2 8 10 32 18 60 21 74 6
178 6 165 0z m-302 -73 c6 0 8 -4 5 -9 -8 -12 -46 -2 -46 11 0 6 7 7 16 4 9
-3 20 -6 25 -6z m169 -24 c0 -2 -9 -6 -20 -9 -11 -3 -20 -1 -20 4 0 5 9 9 20
9 11 0 20 -2 20 -4z m-60 -32 c0 -2 -7 -4 -15 -4 -8 0 -15 4 -15 10 0 5 7 7
15 4 8 -4 15 -8 15 -10z m253 -91 c-13 -2 -35 -2 -50 0 -16 2 -5 4 22 4 28 0
40 -2 28 -4z m-400 -30 c-7 -2 -21 -2 -30 0 -10 3 -4 5 12 5 17 0 24 -2 18 -5z
m762 -43 c3 -5 1 -10 -4 -10 -6 0 -11 5 -11 10 0 6 2 10 4 10 3 0 8 -4 11 -10z
m-88 -45 c0 -8 -6 -15 -13 -15 -18 0 -27 17 -12 23 21 9 25 8 25 -8z m-180
-31 c-3 -3 -12 -4 -19 -1 -8 3 -5 6 6 6 11 1 17 -2 13 -5z m518 -4 c3 -5 -1
-10 -9 -10 -8 0 -18 5 -21 10 -3 6 1 10 9 10 8 0 18 -4 21 -10z m75 -70 c0 -5
-6 -10 -14 -10 -8 0 -18 5 -21 10 -3 6 3 10 14 10 12 0 21 -4 21 -10z m-346
-42 c-5 -7 -1 -9 9 -5 9 3 16 2 14 -3 -1 -5 12 -21 28 -35 l30 -25 -26 3 c-15
1 -33 7 -40 13 -8 5 -27 16 -43 24 -27 14 -28 15 -8 18 12 2 22 10 22 18 0 8
5 12 10 9 6 -4 7 -11 4 -17z m641 -48 c3 -6 -3 -10 -14 -10 -12 0 -21 5 -21
10 0 13 27 13 35 0z m-2015 -10 c0 -5 -15 -10 -32 -9 -31 1 -32 1 -8 9 35 11
40 11 40 0z"/>
<path d="M2957 4533 c-4 -3 -7 -11 -7 -17 0 -6 5 -5 12 2 6 6 9 14 7 17 -3 3
-9 2 -12 -2z"/>
<path d="M801 2995 c-2 -26 -4 -27 -11 -10 -7 17 -9 16 -9 -10 -1 -16 4 -48
11 -70 11 -39 11 -40 18 -13 5 15 4 51 0 80 -5 36 -8 43 -9 23z"/>
<path d="M950 2990 c0 -5 5 -10 11 -10 5 0 7 5 4 10 -3 6 -8 10 -11 10 -2 0
-4 -4 -4 -10z"/>
<path d="M1643 1233 c-110 -3 -124 -6 -133 -23 -6 -11 -7 -20 -3 -21 4 0 56 0
116 1 87 1 107 -2 107 -13 0 -24 23 -27 162 -20 139 6 167 14 207 57 l24 26
-179 -2 c-98 -1 -234 -4 -301 -5z"/>
<path d="M1931 1137 c-8 -11 -68 -15 -243 -21 -226 -6 -247 -9 -248 -39 0 -7
392 1 418 9 6 2 12 -3 12 -10 0 -17 -62 -26 -184 -27 -171 -2 -271 -13 -274
-29 -2 -13 14 -14 120 -8 68 3 176 7 240 7 l117 1 58 55 c32 30 61 55 66 55 4
0 7 5 7 10 0 15 -76 12 -89 -3z"/>
<path d="M1550 1000 c-74 -4 -143 -10 -152 -14 -17 -8 -34 -43 -25 -52 3 -3
101 0 218 6 176 9 218 14 238 29 62 44 37 46 -279 31z"/>
<path d="M995 531 c-3 -5 -1 -12 5 -16 5 -3 10 1 10 9 0 18 -6 21 -15 7z"/>
<path d="M5080 4010 c0 -5 5 -10 10 -10 6 0 10 5 10 10 0 6 -4 10 -10 10 -5 0
-10 -4 -10 -10z"/>
<path d="M5040 3991 c0 -6 5 -13 10 -16 6 -3 10 1 10 9 0 9 -4 16 -10 16 -5 0
-10 -4 -10 -9z"/>
<path d="M5015 3950 c4 -6 11 -8 16 -5 14 9 11 15 -7 15 -8 0 -12 -5 -9 -10z"/>
<path d="M5030 3924 c1 -21 27 -56 34 -45 4 6 -2 21 -13 33 -12 12 -21 18 -21
12z"/>
<path d="M4981 3893 c7 -10 15 -20 16 -22 2 -2 3 5 3 17 0 14 -6 22 -16 22
-14 0 -15 -3 -3 -17z"/>
<path d="M4772 3892 c-18 -3 -23 -8 -19 -23 3 -10 2 -19 -3 -19 -4 0 -10 9
-13 20 -4 17 -8 18 -31 7 -14 -7 -20 -14 -13 -16 7 -2 22 -15 34 -28 l22 -23
23 35 c13 19 28 35 35 35 6 0 14 4 18 9 5 10 -5 10 -53 3z"/>
<path d="M4856 3885 c-3 -8 -17 -20 -30 -26 -32 -15 -52 -65 -29 -73 27 -11
35 -6 19 10 -9 9 -13 21 -9 29 14 23 70 65 78 57 5 -4 5 -1 1 6 -10 16 -23 15
-30 -3z"/>
<path d="M4936 3861 c-4 -7 -5 -15 -2 -18 9 -9 19 4 14 18 -4 11 -6 11 -12 0z"/>
<path d="M4520 3852 c0 -5 6 -17 14 -27 12 -17 13 -17 18 8 4 21 1 27 -13 27
-11 0 -19 -4 -19 -8z"/>
<path d="M4857 3830 c-16 -19 -16 -20 1 -20 9 0 23 9 30 20 10 16 10 20 -1 20
-7 0 -20 -9 -30 -20z"/>
<path d="M4977 3829 c-3 -12 -10 -18 -15 -15 -8 5 -26 -33 -19 -40 1 -2 17 6
34 17 22 14 30 25 26 39 -7 26 -19 25 -26 -1z"/>
<path d="M4480 3830 c0 -5 7 -10 16 -10 8 0 12 5 9 10 -3 6 -10 10 -16 10 -5
0 -9 -4 -9 -10z"/>
<path d="M4665 3829 c-4 -6 2 -19 14 -30 22 -20 43 -27 23 -7 -7 7 -12 20 -12
30 0 20 -15 24 -25 7z"/>
<path d="M5038 3823 c7 -3 16 -2 19 1 4 3 -2 6 -13 5 -11 0 -14 -3 -6 -6z"/>
<path d="M4925 3811 c-3 -6 -12 -8 -18 -5 -8 5 -8 3 1 -7 9 -10 15 -10 24 -1
6 6 9 14 6 17 -3 4 -9 1 -13 -4z"/>
<path d="M5068 3813 c-10 -2 -18 -9 -18 -14 0 -6 8 -5 20 1 11 6 20 13 20 15
0 3 -1 4 -2 4 -2 -1 -11 -3 -20 -6z"/>
<path d="M4665 3780 c-3 -5 -1 -10 4 -10 6 0 11 5 11 10 0 6 -2 10 -4 10 -3 0
-8 -4 -11 -10z"/>
<path d="M5005 3779 c-4 -6 -5 -12 -2 -15 2 -3 7 2 10 11 7 17 1 20 -8 4z"/>
<path d="M4720 3760 c-8 -5 -23 -7 -32 -4 -22 7 -23 -2 -4 -22 21 -20 31 -18
44 11 13 28 13 28 -8 15z"/>
<path d="M4332 3725 c0 -16 2 -22 5 -12 2 9 2 23 0 30 -3 6 -5 -1 -5 -18z"/>
<path d="M4545 3730 c-3 -5 -1 -10 4 -10 6 0 11 5 11 10 0 6 -2 10 -4 10 -3 0
-8 -4 -11 -10z"/>
<path d="M5009 3723 c-13 -16 -12 -17 4 -4 16 13 21 21 13 21 -2 0 -10 -8 -17
-17z"/>
<path d="M4265 3704 c2 -16 4 -31 5 -34 0 -3 5 3 11 14 9 14 8 22 -4 34 -15
14 -16 13 -12 -14z"/>
<path d="M4385 3710 c-3 -5 -1 -10 4 -10 6 0 11 5 11 10 0 6 -2 10 -4 10 -3 0
-8 -4 -11 -10z"/>
<path d="M4724 3704 c-18 -14 -18 -15 4 -4 12 6 22 13 22 15 0 8 -5 6 -26 -11z"/>
<path d="M4660 3700 c-24 -8 -23 -8 8 -9 20 -1 31 3 27 9 -3 6 -7 10 -8 9 -1
-1 -13 -5 -27 -9z"/>
<path d="M4291 3653 c-8 -18 -9 -29 -1 -37 7 -7 10 -2 10 15 0 14 5 30 12 37
7 7 8 12 2 12 -6 0 -16 -12 -23 -27z"/>
<path d="M4337 3639 c-4 -16 -3 -18 9 -8 7 6 11 15 8 20 -8 13 -11 11 -17 -12z"/>
<path d="M3920 3640 c0 -5 5 -10 10 -10 6 0 10 5 10 10 0 6 -4 10 -10 10 -5 0
-10 -4 -10 -10z"/>
<path d="M3874 3625 c-11 -8 -14 -15 -6 -15 15 0 16 -30 1 -30 -6 0 -9 -6 -6
-14 6 -16 -16 -40 -26 -29 -4 3 -7 -1 -7 -11 0 -11 6 -16 18 -14 9 1 23 -1 30
-5 7 -5 12 -4 12 2 0 6 9 3 19 -6 11 -9 17 -21 14 -27 -4 -6 5 0 19 14 16 15
22 27 16 31 -12 8 7 49 22 49 6 0 10 4 10 8 0 10 -70 36 -77 28 -4 -3 1 -6 9
-6 18 0 20 -50 3 -62 -18 -13 -57 -9 -48 5 4 6 8 14 9 17 0 3 3 12 6 20 12 29
16 60 9 60 -4 0 -16 -7 -27 -15z"/>
<path d="M4180 3589 c0 -12 5 -19 12 -17 18 6 20 25 3 31 -10 5 -15 0 -15 -14z"/>
<path d="M4380 3606 c0 -2 7 -9 15 -16 13 -11 14 -10 9 4 -5 14 -24 23 -24 12z"/>
<path d="M4297 3578 c-8 -29 -4 -32 11 -8 6 10 8 21 3 24 -5 3 -11 -4 -14 -16z"/>
<path d="M3810 3569 c-20 -15 -22 -21 -11 -28 9 -6 10 -10 2 -16 -9 -5 -9 -10
-1 -20 8 -10 7 -14 -2 -18 -7 -2 -10 -8 -6 -12 4 -4 14 0 23 8 8 9 12 18 7 21
-13 8 -7 57 9 66 7 5 11 11 9 14 -3 2 -16 -4 -30 -15z"/>
<path d="M4073 3560 c-12 -5 -29 -23 -38 -41 -16 -30 -16 -31 0 -25 9 3 21 6
26 6 6 0 7 9 4 20 -4 12 -2 20 5 20 6 0 8 -4 5 -10 -3 -5 -2 -10 3 -10 5 0 12
11 14 25 3 14 5 25 4 24 0 0 -11 -4 -23 -9z"/>
<path d="M4143 3563 c3 -5 -5 -21 -19 -36 -29 -32 -31 -42 -4 -25 11 7 20 18
20 25 0 17 17 17 24 1 2 -7 3 -2 2 11 -2 14 -9 27 -16 29 -7 3 -10 0 -7 -5z"/>
<path d="M3990 3514 c0 -8 5 -12 10 -9 6 4 8 11 5 16 -9 14 -15 11 -15 -7z"/>
<path d="M3740 3479 c0 -5 5 -7 10 -4 6 3 10 8 10 11 0 2 -4 4 -10 4 -5 0 -10
-5 -10 -11z"/>
<path d="M3857 3470 c-22 -26 -22 -25 8 -25 14 0 25 3 25 8 0 4 -4 7 -10 7 -5
0 -7 7 -4 15 8 21 2 19 -19 -5z"/>
<path d="M3950 3463 l-25 -15 25 6 c14 3 28 6 33 6 4 0 7 5 7 10 0 13 -9 11
-40 -7z"/>
<path d="M4127 3463 c-13 -15 -13 -20 -1 -30 19 -18 24 -16 21 9 -1 12 3 23
10 23 21 0 27 15 6 15 -11 0 -27 -8 -36 -17z"/>
<path d="M3676 3461 c-3 -5 1 -12 10 -15 22 -8 25 -4 9 11 -8 7 -16 9 -19 4z"/>
<path d="M4040 3466 c0 -3 5 -17 12 -31 8 -18 14 -22 20 -13 6 10 8 8 8 -4 0
-22 26 -24 34 -3 5 14 -16 21 -46 16 -5 0 -8 5 -8 13 0 8 -4 18 -10 21 -5 3
-10 4 -10 1z"/>
<path d="M3967 3439 c-9 -5 -21 -7 -27 -4 -13 8 -30 -28 -20 -44 6 -10 9 -8
15 8 7 23 13 25 35 11 13 -9 13 -11 0 -20 -13 -8 -13 -10 1 -10 9 0 22 7 29
15 10 12 9 16 -3 21 -9 3 -13 12 -10 20 6 16 4 17 -20 3z"/>
<path d="M4170 3440 c0 -5 7 -7 15 -4 8 4 15 8 15 10 0 2 -7 4 -15 4 -8 0 -15
-4 -15 -10z"/>
<path d="M3510 3406 c0 -9 5 -16 10 -16 6 0 10 4 10 9 0 6 -4 13 -10 16 -5 3
-10 -1 -10 -9z"/>
<path d="M3730 3401 c0 -6 5 -13 10 -16 6 -3 10 1 10 9 0 9 -4 16 -10 16 -5 0
-10 -4 -10 -9z"/>
<path d="M3823 3387 c-7 -15 -8 -29 -2 -38 7 -12 9 -12 10 1 1 8 1 21 0 28 -1
6 5 12 14 12 9 0 13 5 10 10 -10 16 -21 12 -32 -13z"/>
<path d="M3870 3399 c0 -5 5 -7 10 -4 6 3 10 8 10 11 0 2 -4 4 -10 4 -5 0 -10
-5 -10 -11z"/>
<path d="M3420 3390 c0 -5 5 -10 11 -10 5 0 7 5 4 10 -3 6 -8 10 -11 10 -2 0
-4 -4 -4 -10z"/>
<path d="M3561 3393 c0 -7 -8 -13 -17 -13 -8 0 -12 -4 -9 -10 9 -14 -8 -13
-23 2 -9 9 -15 9 -24 -1 -11 -10 -10 -11 5 -6 12 5 17 2 17 -9 0 -13 4 -15 19
-6 27 14 31 13 31 -8 0 -22 19 -42 40 -41 10 0 7 4 -7 11 -28 13 -31 32 -4 23
16 -5 18 -2 14 15 -3 11 -10 23 -16 27 -6 4 -8 0 -4 -10 3 -10 2 -17 -3 -17
-5 0 -11 12 -13 28 -2 15 -5 21 -6 15z"/>
<path d="M4150 3379 c0 -5 5 -7 10 -4 6 3 10 8 10 11 0 2 -4 4 -10 4 -5 0 -10
-5 -10 -11z"/>
<path d="M4046 3365 c-9 -26 -7 -32 5 -12 6 10 9 21 6 23 -2 3 -7 -2 -11 -11z"/>
<path d="M3850 3359 c0 -7 10 -9 26 -5 17 5 35 1 51 -9 13 -9 29 -15 35 -13
17 6 -56 38 -86 38 -14 0 -26 -5 -26 -11z"/>
<path d="M4008 3363 c7 -3 16 -2 19 1 4 3 -2 6 -13 5 -11 0 -14 -3 -6 -6z"/>
<path d="M3440 3350 c0 -5 5 -10 11 -10 5 0 7 5 4 10 -3 6 -8 10 -11 10 -2 0
-4 -4 -4 -10z"/>
<path d="M4260 3349 c0 -5 5 -7 10 -4 6 3 10 8 10 11 0 2 -4 4 -10 4 -5 0 -10
-5 -10 -11z"/>
<path d="M3525 3331 c-3 -5 -1 -12 5 -16 5 -3 10 1 10 9 0 18 -6 21 -15 7z"/>
<path d="M3850 3330 c0 -7 7 -9 16 -6 8 3 25 1 36 -5 16 -9 19 -8 16 3 -6 17
-68 24 -68 8z"/>
<path d="M3620 3315 c0 -8 5 -15 10 -15 6 0 10 7 10 15 0 8 -4 15 -10 15 -5 0
-10 -7 -10 -15z"/>
<path d="M3825 3320 c-9 -15 4 -30 26 -30 24 0 24 12 -1 27 -12 8 -21 9 -25 3z"/>
<path d="M3980 3307 c0 -19 35 -23 46 -5 5 7 2 9 -8 5 -9 -3 -21 0 -27 6 -8 8
-11 7 -11 -6z"/>
<path d="M3934 3301 c3 -4 -1 -17 -9 -27 -14 -18 -16 -18 -29 -1 -8 10 -20 15
-30 11 -19 -7 -20 -13 -5 -34 9 -13 10 -12 5 3 -9 28 23 21 34 -8 5 -14 12
-25 14 -25 3 0 3 6 0 13 -3 8 7 22 21 33 28 21 33 44 9 44 -8 0 -13 -4 -10 -9z"/>
<path d="M3635 3280 c3 -5 8 -10 11 -10 2 0 4 5 4 10 0 6 -5 10 -11 10 -5 0
-7 -4 -4 -10z"/>
<path d="M3708 3246 c-4 -17 -1 -23 9 -19 7 3 19 1 26 -5 8 -7 16 -6 25 4 10
11 8 15 -13 20 -14 3 -22 10 -19 15 3 5 -1 9 -9 9 -8 0 -17 -11 -19 -24z"/>
<path d="M3627 3241 c-3 -14 0 -21 9 -21 16 0 18 9 5 28 -6 10 -10 9 -14 -7z"/>
<path d="M3670 3250 c0 -5 5 -10 10 -10 6 0 10 5 10 10 0 6 -4 10 -10 10 -5 0
-10 -4 -10 -10z"/>
<path d="M3980 3250 c0 -5 7 -7 15 -4 8 4 15 8 15 10 0 2 -7 4 -15 4 -8 0 -15
-4 -15 -10z"/>
<path d="M3795 3231 c-3 -5 -1 -12 5 -16 5 -3 10 1 10 9 0 18 -6 21 -15 7z"/>
<path d="M3735 3190 c3 -5 11 -10 16 -10 6 0 7 5 4 10 -3 6 -11 10 -16 10 -6
0 -7 -4 -4 -10z"/>
<path d="M3840 3180 c0 -13 11 -13 30 0 12 8 11 10 -7 10 -13 0 -23 -4 -23
-10z"/>
<path d="M3665 3140 c3 -5 8 -10 11 -10 2 0 4 5 4 10 0 6 -5 10 -11 10 -5 0
-7 -4 -4 -10z"/>
<path d="M3855 3140 c3 -5 8 -10 11 -10 2 0 4 5 4 10 0 6 -5 10 -11 10 -5 0
-7 -4 -4 -10z"/>
<path d="M3698 3133 c7 -3 16 -2 19 1 4 3 -2 6 -13 5 -11 0 -14 -3 -6 -6z"/>
<path d="M680 2515 c0 -8 5 -15 11 -15 5 0 7 -4 4 -10 -3 -5 -1 -10 5 -10 7 0
9 7 6 16 -3 9 -6 20 -6 25 0 5 -4 9 -10 9 -5 0 -10 -7 -10 -15z"/>
<path d="M870 2517 c0 -8 7 -14 15 -14 11 0 12 4 4 14 -6 7 -13 13 -15 13 -2
0 -4 -6 -4 -13z"/>
<path d="M566 2513 c-12 -13 7 -23 32 -17 42 10 46 20 8 21 -19 1 -37 -1 -40
-4z"/>
<path d="M820 2511 c0 -6 5 -13 10 -16 6 -3 10 1 10 9 0 9 -4 16 -10 16 -5 0
-10 -4 -10 -9z"/>
<path d="M660 2490 c0 -5 5 -10 11 -10 5 0 7 5 4 10 -3 6 -8 10 -11 10 -2 0
-4 -4 -4 -10z"/>
<path d="M605 2480 c-3 -5 1 -10 10 -10 9 0 13 5 10 10 -3 6 -8 10 -10 10 -2
0 -7 -4 -10 -10z"/>
<path d="M1075 2350 c3 -5 8 -10 11 -10 2 0 4 5 4 10 0 6 -5 10 -11 10 -5 0
-7 -4 -4 -10z"/>
<path d="M3209 2255 c-25 -53 -20 -71 7 -26 12 20 26 31 40 31 21 0 39 22 27
34 -4 3 -17 6 -30 6 -17 0 -28 -11 -44 -45z"/>
<path d="M257 1733 c-4 -3 -7 -11 -7 -17 0 -6 5 -5 12 2 6 6 9 14 7 17 -3 3
-9 2 -12 -2z"/>
<path d="M244 755 c22 -17 56 -20 56 -6 0 11 -25 21 -53 21 -22 -1 -22 -1 -3
-15z"/>
<path d="M425 710 c3 -5 15 -10 26 -10 10 0 19 5 19 10 0 6 -12 10 -26 10 -14
0 -23 -4 -19 -10z"/>
<path d="M720 649 c0 -5 5 -7 10 -4 6 3 10 8 10 11 0 2 -4 4 -10 4 -5 0 -10
-5 -10 -11z"/>
<path d="M2385 280 c-14 -16 -16 -23 -7 -32 9 -9 12 -8 12 4 0 8 10 23 23 31
16 12 18 16 6 16 -9 1 -24 -8 -34 -19z"/>
<path d="M2526 275 c10 -8 24 -14 29 -14 6 0 1 6 -9 14 -11 8 -24 15 -30 15
-5 0 -1 -7 10 -15z"/>
<path d="M2659 253 c-13 -17 -13 -17 6 -3 11 8 22 16 24 17 2 2 0 3 -6 3 -6 0
-17 -8 -24 -17z"/>
<path d="M1677 234 c3 -8 11 -14 19 -14 21 0 17 17 -5 23 -14 3 -18 1 -14 -9z"/>
<path d="M2435 230 c3 -5 16 -10 28 -9 21 0 21 1 2 9 -28 12 -37 12 -30 0z"/>
<path d="M2385 210 c3 -5 8 -10 11 -10 2 0 4 5 4 10 0 6 -5 10 -11 10 -5 0 -7
-4 -4 -10z"/>
<path d="M2033 193 c15 -2 27 -11 27 -18 0 -8 18 -19 41 -25 34 -9 46 -8 77 7
38 19 61 52 26 39 -32 -12 -117 -26 -123 -21 -3 4 1 10 9 15 10 7 -1 9 -35 8
-29 0 -38 -3 -22 -5z"/>
<path d="M2448 183 c7 -3 16 -2 19 1 4 3 -2 6 -13 5 -11 0 -14 -3 -6 -6z"/>
<path d="M2467 152 c-34 -7 -11 -27 41 -36 44 -8 51 -13 46 -28 -6 -19 20 -27
30 -9 10 15 -42 61 -68 61 -13 0 -26 4 -28 8 -1 4 -11 6 -21 4z"/>
<path d="M2185 140 c-22 -5 -26 -9 -14 -14 31 -14 74 -12 74 4 0 17 -19 21
-60 10z"/>
<path d="M2577 143 c-11 -17 0 -32 31 -45 55 -23 82 -17 50 10 -14 11 -18 12
-47 12 -11 0 -21 8 -23 18 -3 12 -6 14 -11 5z"/>
<path d="M1980 126 c0 -2 7 -7 16 -10 8 -3 12 -2 9 4 -6 10 -25 14 -25 6z"/>
<path d="M2310 121 c0 -6 -12 -11 -27 -11 -42 0 -16 -17 52 -34 33 -8 69 -18
81 -21 15 -5 21 -2 21 9 0 8 -4 13 -9 10 -4 -3 -8 0 -8 5 0 6 -9 11 -21 11
-16 0 -19 4 -14 20 7 22 -13 28 -33 8 -8 -8 -15 -8 -27 2 -10 8 -15 9 -15 1z"/>
<path d="M2690 95 c0 -8 17 -16 43 -20 23 -4 51 -12 62 -18 18 -9 19 -9 6 6
-7 10 -23 17 -35 17 -11 0 -33 7 -48 14 -23 12 -28 12 -28 1z"/>
<path d="M2520 59 c0 -6 -7 -9 -15 -5 -8 3 -25 1 -37 -4 -23 -9 -11 -14 24
-11 9 1 19 -3 23 -9 3 -5 16 -10 28 -9 21 0 21 1 -3 11 -15 6 -20 12 -12 15
14 6 16 23 2 23 -5 0 -10 -5 -10 -11z"/>
<path d="M8 3 c7 -3 16 -2 19 1 4 3 -2 6 -13 5 -11 0 -14 -3 -6 -6z"/>
</g>
</svg>
